Karla-UltraLight.ufo
<glyph name="exclam" format="2">
  <advance width="523.225"/>
  <unicode hex="0021"/>
  <outline>
    <contour>
      <point x="239" y="264" type="line"/>
      <point x="287" y="264" type="line"/>
      <point x="298" y="1176" type="line"/>
      <point x="225" y="1176" type="line"/>
    </contour>
    <contour>
      <point x="260" y="-18" type="curve" smooth="yes"/>
      <point x="299" y="-18"/>
      <point x="330" y="12"/>
      <point x="330" y="47" type="curve" smooth="yes"/>
      <point x="330" y="82"/>
      <point x="299" y="116"/>
      <point x="260" y="116" type="curve" smooth="yes"/>
      <point x="224" y="116"/>
      <point x="193" y="82"/>
      <point x="193" y="47" type="curve" smooth="yes"/>
      <point x="193" y="12"/>
      <point x="224" y="-18"/>
    </contour>
  </outline>
</glyph>
<glyph name="numbersign" format="2">
  <advance width="1143.375"/>
  <unicode hex="0023"/>
  <outline>
    <contour>
      <point x="282" y="58" type="line"/>
      <point x="350" y="58" type="line"/>
      <point x="382" y="352" type="line"/>
      <point x="727" y="352" type="line"/>
      <point x="695" y="58" type="line"/>
      <point x="763" y="58" type="line"/>
      <point x="795" y="352" type="line"/>
      <point x="1016" y="352" type="line"/>
      <point x="1024" y="409" type="line"/>
      <point x="803" y="409" type="line"/>
      <point x="843" y="810" type="line"/>
      <point x="1064" y="810" type="line"/>
      <point x="1072" y="867" type="line"/>
      <point x="849" y="867" type="line"/>
      <point x="879" y="1155" type="line"/>
      <point x="813" y="1155" type="line"/>
      <point x="781" y="867" type="line"/>
      <point x="436" y="867" type="line"/>
      <point x="464" y="1155" type="line"/>
      <point x="396" y="1155" type="line"/>
      <point x="368" y="867" type="line"/>
      <point x="150" y="867" type="line"/>
      <point x="146" y="810" type="line"/>
      <point x="360" y="810" type="line"/>
      <point x="318" y="409" type="line"/>
      <point x="104" y="409" type="line"/>
      <point x="98" y="352" type="line"/>
      <point x="314" y="352" type="line"/>
    </contour>
    <contour>
      <point x="386" y="409" type="line"/>
      <point x="428" y="810" type="line"/>
      <point x="773" y="810" type="line"/>
      <point x="731" y="409" type="line"/>
    </contour>
  </outline>
</glyph>
<glyph name="dollar" format="2">
  <advance width="1141.075"/>
  <unicode hex="0024"/>
  <outline>
    <contour>
      <point x="566" y="-20" type="curve" smooth="yes"/>
      <point x="849" y="-20"/>
      <point x="997" y="150"/>
      <point x="997" y="314" type="curve" smooth="yes"/>
      <point x="997" y="488"/>
      <point x="875" y="584"/>
      <point x="711" y="633" type="curve" smooth="yes"/>
      <point x="577" y="671" type="line"/>
      <point x="577" y="596" type="line"/>
      <point x="690" y="563" type="line" smooth="yes"/>
      <point x="833" y="520"/>
      <point x="913" y="440"/>
      <point x="913" y="316" type="curve" smooth="yes"/>
      <point x="913" y="181"/>
      <point x="789" y="50"/>
      <point x="566" y="50" type="curve" smooth="yes"/>
      <point x="379" y="50"/>
      <point x="216" y="145"/>
      <point x="216" y="345" type="curve"/>
      <point x="146" y="345" type="line"/>
      <point x="146" y="118"/>
      <point x="335" y="-20"/>
    </contour>
    <contour>
      <point x="533" y="-162" type="line"/>
      <point x="608" y="-162" type="line"/>
      <point x="608" y="1373" type="line"/>
      <point x="533" y="1373" type="line"/>
    </contour>
    <contour>
      <point x="563" y="600" type="line"/>
      <point x="563" y="675" type="line"/>
      <point x="473" y="703" type="line" smooth="yes"/>
      <point x="324" y="747"/>
      <point x="262" y="807"/>
      <point x="262" y="922" type="curve" smooth="yes"/>
      <point x="262" y="1060"/>
      <point x="372" y="1162"/>
      <point x="573" y="1162" type="curve" smooth="yes"/>
      <point x="747" y="1162"/>
      <point x="853" y="1095"/>
      <point x="873" y="964" type="curve"/>
      <point x="949" y="964" type="line"/>
      <point x="925" y="1119"/>
      <point x="793" y="1231"/>
      <point x="573" y="1231" type="curve" smooth="yes"/>
      <point x="320" y="1231"/>
      <point x="184" y="1103"/>
      <point x="184" y="925" type="curve" smooth="yes"/>
      <point x="184" y="762"/>
      <point x="290" y="686"/>
      <point x="506" y="618" type="curve" smooth="yes"/>
    </contour>
  </outline>
</glyph>
<glyph name="percent" format="2">
  <advance width="1371.05"/>
  <unicode hex="0025"/>
  <outline>
    <contour>
      <point x="232" y="0" type="line"/>
      <point x="314" y="0" type="line"/>
      <point x="1128" y="1213" type="line"/>
      <point x="1043" y="1213" type="line"/>
    </contour>
    <contour>
      <point x="1000" y="-18" type="curve" smooth="yes"/>
      <point x="1128" y="-18"/>
      <point x="1240" y="78"/>
      <point x="1240" y="254" type="curve" smooth="yes"/>
      <point x="1240" y="425"/>
      <point x="1128" y="521"/>
      <point x="1000" y="521" type="curve" smooth="yes"/>
      <point x="880" y="521"/>
      <point x="765" y="425"/>
      <point x="765" y="254" type="curve" smooth="yes"/>
      <point x="765" y="78"/>
      <point x="880" y="-18"/>
    </contour>
    <contour>
      <point x="1000" y="45" type="curve" smooth="yes"/>
      <point x="902" y="45"/>
      <point x="835" y="113"/>
      <point x="835" y="254" type="curve" smooth="yes"/>
      <point x="835" y="388"/>
      <point x="902" y="460"/>
      <point x="1000" y="460" type="curve" smooth="yes"/>
      <point x="1099" y="460"/>
      <point x="1167" y="388"/>
      <point x="1167" y="254" type="curve" smooth="yes"/>
      <point x="1167" y="113"/>
      <point x="1099" y="45"/>
    </contour>
    <contour>
      <point x="358" y="694" type="curve" smooth="yes"/>
      <point x="481" y="694"/>
      <point x="597" y="790"/>
      <point x="597" y="961" type="curve" smooth="yes"/>
      <point x="597" y="1135"/>
      <point x="481" y="1231"/>
      <point x="358" y="1231" type="curve" smooth="yes"/>
      <point x="238" y="1231"/>
      <point x="122" y="1135"/>
      <point x="122" y="961" type="curve" smooth="yes"/>
      <point x="122" y="790"/>
      <point x="238" y="694"/>
    </contour>
    <contour>
      <point x="358" y="755" type="curve" smooth="yes"/>
      <point x="259" y="755"/>
      <point x="193" y="825"/>
      <point x="193" y="961" type="curve" smooth="yes"/>
      <point x="193" y="1100"/>
      <point x="259" y="1174"/>
      <point x="358" y="1174" type="curve" smooth="yes"/>
      <point x="452" y="1174"/>
      <point x="520" y="1100"/>
      <point x="520" y="961" type="curve" smooth="yes"/>
      <point x="520" y="825"/>
      <point x="452" y="755"/>
    </contour>
  </outline>
</glyph>
<glyph name="ampersand" format="2">
  <advance width="1725.475"/>
  <unicode hex="0026"/>
  <outline>
    <contour>
      <point x="1419" y="-20" type="curve" smooth="yes"/>
      <point x="1556" y="-20"/>
      <point x="1634" y="65"/>
      <point x="1648" y="227" type="curve"/>
      <point x="1568" y="227" type="line"/>
      <point x="1555" y="94"/>
      <point x="1491" y="46"/>
      <point x="1419" y="46" type="curve" smooth="yes"/>
      <point x="1357" y="46"/>
      <point x="1325" y="64"/>
      <point x="1265" y="114" type="curve" smooth="yes"/>
      <point x="574" y="709" type="line" smooth="yes"/>
      <point x="478" y="791"/>
      <point x="444" y="867"/>
      <point x="444" y="950" type="curve" smooth="yes"/>
      <point x="444" y="1066"/>
      <point x="530" y="1173"/>
      <point x="703" y="1173" type="curve" smooth="yes"/>
      <point x="843" y="1173"/>
      <point x="935" y="1086"/>
      <point x="935" y="974" type="curve" smooth="yes"/>
      <point x="935" y="874"/>
      <point x="908" y="776"/>
      <point x="639" y="649" type="curve"/>
      <point x="686" y="602" type="line"/>
      <point x="942" y="722"/>
      <point x="1017" y="832"/>
      <point x="1017" y="963" type="curve" smooth="yes"/>
      <point x="1017" y="1119"/>
      <point x="880" y="1231"/>
      <point x="703" y="1231" type="curve" smooth="yes"/>
      <point x="504" y="1231"/>
      <point x="366" y="1123"/>
      <point x="366" y="959" type="curve" smooth="yes"/>
      <point x="366" y="851"/>
      <point x="422" y="749"/>
      <point x="530" y="657" type="curve" smooth="yes"/>
      <point x="1209" y="75" type="line" smooth="yes"/>
      <point x="1286" y="8"/>
      <point x="1346" y="-20"/>
    </contour>
    <contour>
      <point x="619" y="-20" type="curve" smooth="yes"/>
      <point x="1027" y="-20"/>
      <point x="1250" y="327"/>
      <point x="1368" y="712" type="curve"/>
      <point x="1307" y="744" type="line"/>
      <point x="1196" y="373"/>
      <point x="973" y="44"/>
      <point x="621" y="44" type="curve" smooth="yes"/>
      <point x="376" y="44"/>
      <point x="250" y="173"/>
      <point x="250" y="323" type="curve" smooth="yes"/>
      <point x="250" y="482"/>
      <point x="380" y="560"/>
      <point x="645" y="590" type="curve"/>
      <point x="646" y="645" type="line"/>
      <point x="328" y="617"/>
      <point x="172" y="527"/>
      <point x="172" y="325" type="curve" smooth="yes"/>
      <point x="172" y="136"/>
      <point x="351" y="-20"/>
    </contour>
  </outline>
</glyph>
<glyph name="quotesingle" format="2">
  <advance width="180.8"/>
  <unicode hex="0027"/>
  <outline>
    <contour>
      <point x="50" y="1354" type="line"/>
      <point x="60" y="951" type="line"/>
      <point x="120" y="951" type="line"/>
      <point x="132" y="1354" type="line"/>
    </contour>
  </outline>
</glyph>
<glyph name="parenleft" format="2">
  <advance width="620.8"/>
  <unicode hex="0028"/>
  <outline>
    <contour>
      <point x="519" y="1399" type="line"/>
      <point x="286" y="1179"/>
      <point x="146" y="881"/>
      <point x="146" y="591" type="curve" smooth="yes"/>
      <point x="146" y="304"/>
      <point x="286" y="2"/>
      <point x="519" y="-220" type="curve"/>
      <point x="572" y="-185" type="line"/>
      <point x="346" y="37"/>
      <point x="228" y="324"/>
      <point x="228" y="591" type="curve" smooth="yes"/>
      <point x="228" y="857"/>
      <point x="346" y="1144"/>
      <point x="572" y="1368" type="curve"/>
    </contour>
  </outline>
</glyph>
<glyph name="parenright" format="2">
  <advance width="620.8"/>
  <unicode hex="0029"/>
  <outline>
    <contour>
      <point x="102" y="-220" type="line"/>
      <point x="334" y="2"/>
      <point x="476" y="304"/>
      <point x="476" y="591" type="curve" smooth="yes"/>
      <point x="476" y="881"/>
      <point x="334" y="1179"/>
      <point x="102" y="1399" type="curve"/>
      <point x="48" y="1368" type="line"/>
      <point x="274" y="1144"/>
      <point x="394" y="857"/>
      <point x="394" y="591" type="curve" smooth="yes"/>
      <point x="394" y="324"/>
      <point x="274" y="37"/>
      <point x="48" y="-185" type="curve"/>
    </contour>
  </outline>
</glyph>
<glyph name="asterisk" format="2">
  <advance width="832.175"/>
  <unicode hex="002A"/>
  <outline>
    <contour>
      <point x="182" y="813" type="line"/>
      <point x="248" y="760" type="line"/>
      <point x="416" y="974" type="line"/>
      <point x="584" y="760" type="line"/>
      <point x="646" y="813" type="line"/>
      <point x="457" y="1005" type="line"/>
      <point x="704" y="1091" type="line"/>
      <point x="668" y="1165" type="line"/>
      <point x="442" y="1053" type="line"/>
      <point x="453" y="1327" type="line"/>
      <point x="375" y="1327" type="line"/>
      <point x="386" y="1053" type="line"/>
      <point x="160" y="1165" type="line"/>
      <point x="124" y="1094" type="line"/>
      <point x="371" y="1003" type="line"/>
    </contour>
  </outline>
</glyph>
<glyph name="plus" format="2">
  <advance width="1020.175"/>
  <unicode hex="002B"/>
  <outline>
    <contour>
      <point x="475" y="982" type="line"/>
      <point x="475" y="521" type="line"/>
      <point x="36" y="521" type="line"/>
      <point x="36" y="461" type="line"/>
      <point x="475" y="461" type="line"/>
      <point x="475" y="0" type="line"/>
      <point x="545" y="0" type="line"/>
      <point x="545" y="461" type="line"/>
      <point x="983" y="461" type="line"/>
      <point x="983" y="521" type="line"/>
      <point x="545" y="521" type="line"/>
      <point x="545" y="982" type="line"/>
    </contour>
  </outline>
</glyph>
<glyph name="comma" format="2">
  <advance width="327.8"/>
  <unicode hex="002C"/>
  <outline>
    <contour>
      <point x="133" y="-163" type="line"/>
      <point x="222" y="-117"/>
      <point x="256" y="-46"/>
      <point x="256" y="18" type="curve" smooth="yes"/>
      <point x="256" y="71"/>
      <point x="216" y="112"/>
      <point x="171" y="112" type="curve" smooth="yes"/>
      <point x="134" y="112"/>
      <point x="110" y="82"/>
      <point x="110" y="51" type="curve" smooth="yes"/>
      <point x="110" y="12"/>
      <point x="142" y="-12"/>
      <point x="183" y="-10" type="curve"/>
      <point x="174" y="-72"/>
      <point x="136" y="-104"/>
      <point x="72" y="-135" type="curve"/>
    </contour>
  </outline>
</glyph>
<glyph name="hyphen" format="2">
  <advance width="643.725"/>
  <unicode hex="002D"/>
  <outline>
    <contour>
      <point x="60" y="528" type="line"/>
      <point x="585" y="528" type="line"/>
      <point x="585" y="593" type="line"/>
      <point x="60" y="593" type="line"/>
    </contour>
  </outline>
</glyph>
<glyph name="period" format="2">
  <advance width="282.175"/>
  <unicode hex="002E"/>
  <outline>
    <contour>
      <point x="72" y="47" type="curve" smooth="yes"/>
      <point x="72" y="12"/>
      <point x="104" y="-18"/>
      <point x="139" y="-18" type="curve" smooth="yes"/>
      <point x="178" y="-18"/>
      <point x="210" y="12"/>
      <point x="210" y="47" type="curve" smooth="yes"/>
      <point x="210" y="82"/>
      <point x="178" y="116"/>
      <point x="139" y="116" type="curve" smooth="yes"/>
      <point x="104" y="116"/>
      <point x="72" y="82"/>
    </contour>
  </outline>
</glyph>
<glyph name="slash" format="2">
  <advance width="781"/>
  <unicode hex="002F"/>
  <outline>
    <contour>
      <point x="122" y="-128" type="line"/>
      <point x="194" y="-128" type="line"/>
      <point x="688" y="1433" type="line"/>
      <point x="612" y="1433" type="line"/>
    </contour>
  </outline>
</glyph>
<glyph name="zero" format="2">
  <advance width="1107.05"/>
  <unicode hex="0030"/>
  <outline>
    <contour>
      <point x="553" y="-20" type="curve" smooth="yes"/>
      <point x="824" y="-20"/>
      <point x="998" y="192"/>
      <point x="998" y="608" type="curve" smooth="yes"/>
      <point x="998" y="1021"/>
      <point x="824" y="1231"/>
      <point x="553" y="1231" type="curve" smooth="yes"/>
      <point x="282" y="1231"/>
      <point x="110" y="1021"/>
      <point x="110" y="608" type="curve" smooth="yes"/>
      <point x="110" y="192"/>
      <point x="282" y="-20"/>
    </contour>
    <contour>
      <point x="553" y="50" type="curve" smooth="yes"/>
      <point x="312" y="50"/>
      <point x="188" y="257"/>
      <point x="188" y="608" type="curve" smooth="yes"/>
      <point x="188" y="958"/>
      <point x="312" y="1163"/>
      <point x="553" y="1163" type="curve" smooth="yes"/>
      <point x="800" y="1163"/>
      <point x="920" y="958"/>
      <point x="920" y="608" type="curve" smooth="yes"/>
      <point x="920" y="257"/>
      <point x="800" y="50"/>
    </contour>
  </outline>
</glyph>
<glyph name="one" format="2">
  <advance width="607.7"/>
  <unicode hex="0031"/>
  <outline>
    <contour>
      <point x="316" y="1213" type="line"/>
      <point x="262" y="1159"/>
      <point x="186" y="1129"/>
      <point x="108" y="1115" type="curve"/>
      <point x="108" y="1039" type="line"/>
      <point x="180" y="1043"/>
      <point x="256" y="1073"/>
      <point x="314" y="1129" type="curve"/>
      <point x="314" y="0" type="line"/>
      <point x="388" y="0" type="line"/>
      <point x="388" y="1213" type="line"/>
    </contour>
  </outline>
</glyph>
<glyph name="two" format="2">
  <advance width="1106.725"/>
  <unicode hex="0032"/>
  <outline>
    <contour>
      <point x="136" y="0" type="line"/>
      <point x="928" y="0" type="line"/>
      <point x="928" y="70" type="line"/>
      <point x="210" y="70" type="line"/>
      <point x="210" y="153" type="line" smooth="yes"/>
      <point x="210" y="296"/>
      <point x="295" y="380"/>
      <point x="447" y="440" type="curve" smooth="yes"/>
      <point x="687" y="540" type="line" smooth="yes"/>
      <point x="824" y="600"/>
      <point x="944" y="706"/>
      <point x="944" y="894" type="curve" smooth="yes"/>
      <point x="944" y="1085"/>
      <point x="787" y="1231"/>
      <point x="565" y="1231" type="curve" smooth="yes"/>
      <point x="315" y="1231"/>
      <point x="180" y="1117"/>
      <point x="158" y="948" type="curve"/>
      <point x="242" y="948" type="line"/>
      <point x="258" y="1092"/>
      <point x="378" y="1163"/>
      <point x="565" y="1163" type="curve" smooth="yes"/>
      <point x="748" y="1163"/>
      <point x="860" y="1060"/>
      <point x="860" y="904" type="curve" smooth="yes"/>
      <point x="860" y="759"/>
      <point x="786" y="669"/>
      <point x="646" y="611" type="curve" smooth="yes"/>
      <point x="416" y="517" type="line" smooth="yes"/>
      <point x="263" y="453"/>
      <point x="136" y="367"/>
      <point x="136" y="149" type="curve" smooth="yes"/>
    </contour>
  </outline>
</glyph>
<glyph name="three" format="2">
  <advance width="1116.425"/>
  <unicode hex="0033"/>
  <outline>
    <contour>
      <point x="561" y="-20" type="curve" smooth="yes"/>
      <point x="823" y="-20"/>
      <point x="972" y="126"/>
      <point x="972" y="328" type="curve" smooth="yes"/>
      <point x="972" y="496"/>
      <point x="852" y="598"/>
      <point x="692" y="635" type="curve"/>
      <point x="836" y="688"/>
      <point x="918" y="777"/>
      <point x="918" y="909" type="curve" smooth="yes"/>
      <point x="918" y="1095"/>
      <point x="756" y="1231"/>
      <point x="539" y="1231" type="curve" smooth="yes"/>
      <point x="358" y="1231"/>
      <point x="205" y="1161"/>
      <point x="169" y="960" type="curve"/>
      <point x="238" y="960" type="line"/>
      <point x="285" y="1119"/>
      <point x="399" y="1163"/>
      <point x="537" y="1163" type="curve" smooth="yes"/>
      <point x="723" y="1163"/>
      <point x="838" y="1050"/>
      <point x="838" y="910" type="curve" smooth="yes"/>
      <point x="838" y="749"/>
      <point x="689" y="655"/>
      <point x="452" y="655" type="curve" smooth="yes"/>
      <point x="407" y="655" type="line"/>
      <point x="407" y="594" type="line"/>
      <point x="519" y="594" type="line" smooth="yes"/>
      <point x="792" y="594"/>
      <point x="890" y="478"/>
      <point x="890" y="329" type="curve" smooth="yes"/>
      <point x="890" y="171"/>
      <point x="772" y="50"/>
      <point x="561" y="50" type="curve" smooth="yes"/>
      <point x="363" y="50"/>
      <point x="192" y="151"/>
      <point x="192" y="359" type="curve"/>
      <point x="122" y="359" type="line"/>
      <point x="122" y="114"/>
      <point x="332" y="-20"/>
    </contour>
  </outline>
</glyph>
<glyph name="four" format="2">
  <advance width="1042.175"/>
  <unicode hex="0034"/>
  <outline>
    <contour>
      <point x="712" y="1235" type="line"/>
      <point x="60" y="385" type="line"/>
      <point x="60" y="324" type="line"/>
      <point x="702" y="324" type="line"/>
      <point x="702" y="0" type="line"/>
      <point x="774" y="0" type="line"/>
      <point x="774" y="324" type="line"/>
      <point x="984" y="324" type="line"/>
      <point x="984" y="385" type="line"/>
      <point x="774" y="385" type="line"/>
      <point x="774" y="1235" type="line"/>
    </contour>
    <contour>
      <point x="702" y="1096" type="line"/>
      <point x="702" y="385" type="line"/>
      <point x="150" y="385" type="line"/>
    </contour>
  </outline>
</glyph>
<glyph name="five" format="2">
  <advance width="1093.125"/>
  <unicode hex="0035"/>
  <outline>
    <contour>
      <point x="533" y="-20" type="curve" smooth="yes"/>
      <point x="793" y="-20"/>
      <point x="946" y="150"/>
      <point x="946" y="379" type="curve" smooth="yes"/>
      <point x="946" y="617"/>
      <point x="778" y="727"/>
      <point x="502" y="727" type="curve" smooth="yes"/>
      <point x="438" y="727"/>
      <point x="359" y="723"/>
      <point x="295" y="709" type="curve"/>
      <point x="315" y="695" type="line"/>
      <point x="361" y="1186" type="line"/>
      <point x="343" y="1147" type="line"/>
      <point x="895" y="1147" type="line"/>
      <point x="895" y="1213" type="line"/>
      <point x="283" y="1213" type="line"/>
      <point x="235" y="664" type="line"/>
      <point x="509" y="664" type="line" smooth="yes"/>
      <point x="744" y="664"/>
      <point x="866" y="566"/>
      <point x="866" y="379" type="curve" smooth="yes"/>
      <point x="866" y="193"/>
      <point x="748" y="50"/>
      <point x="533" y="50" type="curve" smooth="yes"/>
      <point x="357" y="50"/>
      <point x="216" y="141"/>
      <point x="216" y="311" type="curve"/>
      <point x="146" y="311" type="line"/>
      <point x="144" y="94"/>
      <point x="338" y="-20"/>
    </contour>
  </outline>
</glyph>
<glyph name="six" format="2">
  <advance width="1074.275"/>
  <unicode hex="0036"/>
  <outline>
    <contour>
      <point x="559" y="-20" type="curve" smooth="yes"/>
      <point x="786" y="-20"/>
      <point x="942" y="126"/>
      <point x="942" y="344" type="curve" smooth="yes"/>
      <point x="942" y="563"/>
      <point x="768" y="715"/>
      <point x="556" y="715" type="curve" smooth="yes"/>
      <point x="374" y="715"/>
      <point x="204" y="623"/>
      <point x="200" y="336" type="curve"/>
      <point x="190" y="407"/>
      <point x="188" y="497"/>
      <point x="188" y="557" type="curve" smooth="yes"/>
      <point x="188" y="932"/>
      <point x="337" y="1163"/>
      <point x="591" y="1163" type="curve" smooth="yes"/>
      <point x="748" y="1163"/>
      <point x="824" y="1074"/>
      <point x="850" y="938" type="curve"/>
      <point x="936" y="938" type="line"/>
      <point x="906" y="1111"/>
      <point x="780" y="1231"/>
      <point x="591" y="1231" type="curve" smooth="yes"/>
      <point x="282" y="1231"/>
      <point x="110" y="983"/>
      <point x="110" y="585" type="curve" smooth="yes"/>
      <point x="110" y="248"/>
      <point x="282" y="-20"/>
    </contour>
    <contour>
      <point x="559" y="50" type="curve" smooth="yes"/>
      <point x="382" y="50"/>
      <point x="258" y="161"/>
      <point x="258" y="341" type="curve" smooth="yes"/>
      <point x="258" y="506"/>
      <point x="382" y="634"/>
      <point x="559" y="634" type="curve" smooth="yes"/>
      <point x="738" y="634"/>
      <point x="860" y="524"/>
      <point x="860" y="341" type="curve" smooth="yes"/>
      <point x="860" y="161"/>
      <point x="738" y="50"/>
    </contour>
  </outline>
</glyph>
<glyph name="seven" format="2">
  <advance width="881.6"/>
  <unicode hex="0037"/>
  <outline>
    <contour>
      <point x="149" y="0" type="line"/>
      <point x="244" y="0" type="line"/>
      <point x="847" y="1153" type="line"/>
      <point x="847" y="1213" type="line"/>
      <point x="48" y="1213" type="line"/>
      <point x="48" y="1147" type="line"/>
      <point x="759" y="1147" type="line"/>
    </contour>
  </outline>
</glyph>
<glyph name="eight" format="2">
  <advance width="1163.4"/>
  <unicode hex="0038"/>
  <outline>
    <contour>
      <point x="581" y="-20" type="curve" smooth="yes"/>
      <point x="870" y="-20"/>
      <point x="1042" y="104"/>
      <point x="1042" y="283" type="curve" smooth="yes"/>
      <point x="1042" y="435"/>
      <point x="944" y="519"/>
      <point x="766" y="585" type="curve" smooth="yes"/>
      <point x="457" y="701" type="line" smooth="yes"/>
      <point x="327" y="747"/>
      <point x="244" y="805"/>
      <point x="244" y="920" type="curve" smooth="yes"/>
      <point x="244" y="1050"/>
      <point x="387" y="1163"/>
      <point x="581" y="1163" type="curve" smooth="yes"/>
      <point x="780" y="1163"/>
      <point x="914" y="1050"/>
      <point x="914" y="908" type="curve" smooth="yes"/>
      <point x="914" y="751"/>
      <point x="778" y="643"/>
      <point x="585" y="643" type="curve"/>
      <point x="585" y="611" type="line"/>
      <point x="609" y="605"/>
      <point x="631" y="605"/>
      <point x="652" y="605" type="curve" smooth="yes"/>
      <point x="880" y="605"/>
      <point x="992" y="745"/>
      <point x="992" y="907" type="curve" smooth="yes"/>
      <point x="992" y="1091"/>
      <point x="829" y="1231"/>
      <point x="581" y="1231" type="curve" smooth="yes"/>
      <point x="322" y="1231"/>
      <point x="162" y="1093"/>
      <point x="162" y="921" type="curve" smooth="yes"/>
      <point x="162" y="766"/>
      <point x="302" y="676"/>
      <point x="420" y="632" type="curve" smooth="yes"/>
      <point x="741" y="510" type="line" smooth="yes"/>
      <point x="876" y="464"/>
      <point x="960" y="398"/>
      <point x="960" y="283" type="curve" smooth="yes"/>
      <point x="960" y="143"/>
      <point x="805" y="50"/>
      <point x="581" y="50" type="curve" smooth="yes"/>
      <point x="361" y="50"/>
      <point x="200" y="145"/>
      <point x="200" y="325" type="curve" smooth="yes"/>
      <point x="200" y="470"/>
      <point x="347" y="607"/>
      <point x="577" y="607" type="curve"/>
      <point x="577" y="640" type="line"/>
      <point x="558" y="644"/>
      <point x="532" y="642"/>
      <point x="513" y="642" type="curve" smooth="yes"/>
      <point x="284" y="642"/>
      <point x="122" y="522"/>
      <point x="122" y="326" type="curve" smooth="yes"/>
      <point x="122" y="126"/>
      <point x="324" y="-20"/>
    </contour>
  </outline>
</glyph>
<glyph name="nine" format="2">
  <advance width="1098.5"/>
  <unicode hex="0039"/>
  <outline>
    <contour>
      <point x="541" y="-20" type="curve" smooth="yes"/>
      <point x="857" y="-20"/>
      <point x="988" y="232"/>
      <point x="988" y="634" type="curve" smooth="yes"/>
      <point x="988" y="1001"/>
      <point x="807" y="1231"/>
      <point x="542" y="1231" type="curve" smooth="yes"/>
      <point x="310" y="1231"/>
      <point x="159" y="1091"/>
      <point x="159" y="872" type="curve" smooth="yes"/>
      <point x="159" y="656"/>
      <point x="333" y="498"/>
      <point x="538" y="498" type="curve" smooth="yes"/>
      <point x="747" y="498"/>
      <point x="880" y="624"/>
      <point x="894" y="836" type="curve"/>
      <point x="904" y="766"/>
      <point x="906" y="722"/>
      <point x="906" y="658" type="curve" smooth="yes"/>
      <point x="906" y="283"/>
      <point x="796" y="50"/>
      <point x="541" y="50" type="curve" smooth="yes"/>
      <point x="345" y="50"/>
      <point x="238" y="171"/>
      <point x="236" y="360" type="curve"/>
      <point x="161" y="360" type="line"/>
      <point x="161" y="144"/>
      <point x="314" y="-20"/>
    </contour>
    <contour>
      <point x="540" y="579" type="curve" smooth="yes"/>
      <point x="361" y="579"/>
      <point x="237" y="691"/>
      <point x="237" y="872" type="curve" smooth="yes"/>
      <point x="237" y="1052"/>
      <point x="361" y="1165"/>
      <point x="542" y="1165" type="curve" smooth="yes"/>
      <point x="714" y="1165"/>
      <point x="843" y="1052"/>
      <point x="843" y="872" type="curve" smooth="yes"/>
      <point x="843" y="711"/>
      <point x="714" y="579"/>
    </contour>
  </outline>
</glyph>
<glyph name="less" format="2">
  <advance width="805.55"/>
  <unicode hex="003C"/>
  <outline>
    <contour>
      <point x="665" y="1048" type="line"/>
      <point x="74" y="604" type="line"/>
      <point x="74" y="546" type="line"/>
      <point x="665" y="105" type="line"/>
      <point x="712" y="167" type="line"/>
      <point x="122" y="589" type="line"/>
      <point x="122" y="562" type="line"/>
      <point x="712" y="989" type="line"/>
    </contour>
  </outline>
</glyph>
<glyph name="equal" format="2">
  <advance width="937.075"/>
  <unicode hex="003D"/>
  <outline>
    <contour>
      <point x="158" y="339" type="line"/>
      <point x="158" y="277" type="line"/>
      <point x="777" y="277" type="line"/>
      <point x="777" y="339" type="line"/>
    </contour>
    <contour>
      <point x="158" y="686" type="line"/>
      <point x="158" y="620" type="line"/>
      <point x="777" y="620" type="line"/>
      <point x="777" y="686" type="line"/>
    </contour>
  </outline>
</glyph>
<glyph name="greater" format="2">
  <advance width="805.55"/>
  <unicode hex="003E"/>
  <outline>
    <contour>
      <point x="145" y="105" type="line"/>
      <point x="736" y="546" type="line"/>
      <point x="736" y="604" type="line"/>
      <point x="145" y="1048" type="line"/>
      <point x="98" y="989" type="line"/>
      <point x="681" y="562" type="line"/>
      <point x="681" y="589" type="line"/>
      <point x="98" y="167" type="line"/>
    </contour>
  </outline>
</glyph>
<glyph name="question" format="2">
  <advance width="959.075"/>
  <unicode hex="003F"/>
  <outline>
    <contour>
      <point x="358" y="250" type="line"/>
      <point x="428" y="250" type="line"/>
      <point x="428" y="353" type="line" smooth="yes"/>
      <point x="428" y="510"/>
      <point x="474" y="552"/>
      <point x="612" y="634" type="curve" smooth="yes"/>
      <point x="772" y="724"/>
      <point x="836" y="802"/>
      <point x="836" y="938" type="curve" smooth="yes"/>
      <point x="836" y="1093"/>
      <point x="701" y="1231"/>
      <point x="474" y="1231" type="curve" smooth="yes"/>
      <point x="226" y="1231"/>
      <point x="94" y="1119"/>
      <point x="72" y="964" type="curve"/>
      <point x="156" y="964" type="line"/>
      <point x="191" y="1095"/>
      <point x="283" y="1163"/>
      <point x="471" y="1163" type="curve" smooth="yes"/>
      <point x="650" y="1163"/>
      <point x="759" y="1068"/>
      <point x="759" y="944" type="curve" smooth="yes"/>
      <point x="759" y="813"/>
      <point x="696" y="763"/>
      <point x="554" y="683" type="curve" smooth="yes"/>
      <point x="398" y="591"/>
      <point x="358" y="525"/>
      <point x="358" y="351" type="curve" smooth="yes"/>
    </contour>
    <contour>
      <point x="393" y="-20" type="curve" smooth="yes"/>
      <point x="428" y="-20"/>
      <point x="464" y="12"/>
      <point x="464" y="47" type="curve" smooth="yes"/>
      <point x="464" y="80"/>
      <point x="428" y="116"/>
      <point x="393" y="116" type="curve" smooth="yes"/>
      <point x="356" y="116"/>
      <point x="326" y="80"/>
      <point x="326" y="47" type="curve" smooth="yes"/>
      <point x="326" y="12"/>
      <point x="356" y="-20"/>
    </contour>
  </outline>
</glyph>
<glyph name="at" format="2">
  <advance width="1696.6"/>
  <unicode hex="0040"/>
  <outline>
    <contour>
      <point x="1037" y="-284" type="curve"/>
      <point x="1037" y="-226" type="line"/>
      <point x="541" y="-226"/>
      <point x="214" y="46"/>
      <point x="214" y="477" type="curve" smooth="yes"/>
      <point x="214" y="838"/>
      <point x="486" y="1169"/>
      <point x="920" y="1169" type="curve" smooth="yes"/>
      <point x="1285" y="1169"/>
      <point x="1532" y="931"/>
      <point x="1532" y="598" type="curve" smooth="yes"/>
      <point x="1532" y="330"/>
      <point x="1370" y="145"/>
      <point x="1235" y="145" type="curve" smooth="yes"/>
      <point x="1175" y="145"/>
      <point x="1151" y="181"/>
      <point x="1151" y="251" type="curve" smooth="yes"/>
      <point x="1151" y="598" type="line" smooth="yes"/>
      <point x="1151" y="774"/>
      <point x="1059" y="860"/>
      <point x="924" y="860" type="curve" smooth="yes"/>
      <point x="712" y="860"/>
      <point x="514" y="676"/>
      <point x="514" y="420" type="curve" smooth="yes"/>
      <point x="514" y="221"/>
      <point x="664" y="99"/>
      <point x="816" y="99" type="curve" smooth="yes"/>
      <point x="950" y="99"/>
      <point x="1030" y="183"/>
      <point x="1074" y="279" type="curve"/>
      <point x="1074" y="251" type="line" smooth="yes"/>
      <point x="1078" y="149"/>
      <point x="1137" y="99"/>
      <point x="1235" y="99" type="curve" smooth="yes"/>
      <point x="1431" y="99"/>
      <point x="1612" y="307"/>
      <point x="1612" y="598" type="curve" smooth="yes"/>
      <point x="1612" y="945"/>
      <point x="1333" y="1231"/>
      <point x="920" y="1231" type="curve" smooth="yes"/>
      <point x="449" y="1231"/>
      <point x="134" y="899"/>
      <point x="134" y="477" type="curve" smooth="yes"/>
      <point x="134" y="27"/>
      <point x="494" y="-284"/>
    </contour>
    <contour>
      <point x="820" y="159" type="curve" smooth="yes"/>
      <point x="689" y="159"/>
      <point x="597" y="258"/>
      <point x="597" y="420" type="curve" smooth="yes"/>
      <point x="597" y="657"/>
      <point x="783" y="799"/>
      <point x="924" y="799" type="curve" smooth="yes"/>
      <point x="1030" y="799"/>
      <point x="1076" y="743"/>
      <point x="1076" y="601" type="curve" smooth="yes"/>
      <point x="1076" y="372" type="line"/>
      <point x="1012" y="240"/>
      <point x="938" y="159"/>
    </contour>
  </outline>
</glyph>
<glyph name="A" format="2">
  <advance width="1044.45"/>
  <unicode hex="0041"/>
  <anchor x="523" y="1215" name="above"/>
  <outline>
    <contour>
      <point x="60" y="0" type="line"/>
      <point x="136" y="0" type="line"/>
      <point x="265" y="365" type="line"/>
      <point x="783" y="365" type="line"/>
      <point x="905" y="0" type="line"/>
      <point x="983" y="0" type="line"/>
      <point x="563" y="1213" type="line"/>
      <point x="482" y="1213" type="line"/>
    </contour>
    <contour>
      <point x="284" y="430" type="line"/>
      <point x="521" y="1117" type="line"/>
      <point x="759" y="430" type="line"/>
    </contour>
  </outline>
</glyph>
<glyph name="B" format="2">
  <advance width="1188.675"/>
  <unicode hex="0042"/>
  <outline>
    <contour>
      <point x="218" y="0" type="line"/>
      <point x="631" y="0" type="line" smooth="yes"/>
      <point x="920" y="0"/>
      <point x="1028" y="147"/>
      <point x="1028" y="324" type="curve" smooth="yes"/>
      <point x="1028" y="445"/>
      <point x="926" y="590"/>
      <point x="764" y="607" type="curve"/>
      <point x="932" y="641"/>
      <point x="1006" y="759"/>
      <point x="1006" y="901" type="curve" smooth="yes"/>
      <point x="1006" y="1063"/>
      <point x="884" y="1213"/>
      <point x="633" y="1213" type="curve" smooth="yes"/>
      <point x="218" y="1213" type="line"/>
    </contour>
    <contour>
      <point x="292" y="64" type="line"/>
      <point x="292" y="576" type="line"/>
      <point x="633" y="576" type="line" smooth="yes"/>
      <point x="840" y="576"/>
      <point x="952" y="476"/>
      <point x="952" y="325" type="curve" smooth="yes"/>
      <point x="952" y="175"/>
      <point x="864" y="64"/>
      <point x="633" y="64" type="curve" smooth="yes"/>
    </contour>
    <contour>
      <point x="292" y="1151" type="line"/>
      <point x="633" y="1151" type="line" smooth="yes"/>
      <point x="810" y="1151"/>
      <point x="930" y="1062"/>
      <point x="930" y="904" type="curve" smooth="yes"/>
      <point x="930" y="731"/>
      <point x="804" y="637"/>
      <point x="631" y="637" type="curve" smooth="yes"/>
      <point x="292" y="637" type="line"/>
    </contour>
  </outline>
</glyph>
<glyph name="C" format="2">
  <advance width="1183.975"/>
  <unicode hex="0043"/>
  <outline>
    <contour>
      <point x="618" y="-20" type="curve" smooth="yes"/>
      <point x="883" y="-20"/>
      <point x="1087" y="138"/>
      <point x="1087" y="387" type="curve"/>
      <point x="1001" y="387" type="line"/>
      <point x="1001" y="179"/>
      <point x="846" y="46"/>
      <point x="618" y="46" type="curve" smooth="yes"/>
      <point x="318" y="46"/>
      <point x="190" y="307"/>
      <point x="190" y="620" type="curve" smooth="yes"/>
      <point x="190" y="974"/>
      <point x="395" y="1167"/>
      <point x="618" y="1167" type="curve" smooth="yes"/>
      <point x="790" y="1167"/>
      <point x="939" y="1059"/>
      <point x="1001" y="882" type="curve"/>
      <point x="1083" y="904" type="line"/>
      <point x="1007" y="1097"/>
      <point x="851" y="1231"/>
      <point x="618" y="1231" type="curve" smooth="yes"/>
      <point x="338" y="1231"/>
      <point x="110" y="1015"/>
      <point x="110" y="620" type="curve" smooth="yes"/>
      <point x="110" y="262"/>
      <point x="296" y="-20"/>
    </contour>
  </outline>
</glyph>
<glyph name="D" format="2">
  <advance width="1265.675"/>
  <unicode hex="0044"/>
  <outline>
    <contour>
      <point x="218" y="1213" type="line"/>
      <point x="218" y="0" type="line"/>
      <point x="533" y="0" type="line" smooth="yes"/>
      <point x="897" y="0"/>
      <point x="1118" y="246"/>
      <point x="1118" y="608" type="curve" smooth="yes"/>
      <point x="1118" y="973"/>
      <point x="897" y="1213"/>
      <point x="533" y="1213" type="curve" smooth="yes"/>
    </contour>
    <contour>
      <point x="292" y="1153" type="line"/>
      <point x="533" y="1153" type="line" smooth="yes"/>
      <point x="850" y="1153"/>
      <point x="1042" y="922"/>
      <point x="1042" y="608" type="curve" smooth="yes"/>
      <point x="1042" y="293"/>
      <point x="850" y="58"/>
      <point x="533" y="58" type="curve" smooth="yes"/>
      <point x="292" y="58" type="line"/>
    </contour>
  </outline>
</glyph>
<glyph name="E" format="2">
  <advance width="1073.775"/>
  <unicode hex="0045"/>
  <anchor x="576" y="1215" name="above"/>
  <outline>
    <contour>
      <point x="216" y="0" type="line"/>
      <point x="929" y="0" type="line"/>
      <point x="929" y="64" type="line"/>
      <point x="290" y="64" type="line"/>
      <point x="290" y="584" type="line"/>
      <point x="893" y="584" type="line"/>
      <point x="893" y="647" type="line"/>
      <point x="290" y="647" type="line"/>
      <point x="290" y="1151" type="line"/>
      <point x="929" y="1151" type="line"/>
      <point x="929" y="1213" type="line"/>
      <point x="216" y="1213" type="line"/>
    </contour>
  </outline>
</glyph>
<glyph name="G" format="2">
  <advance width="1220.35"/>
  <unicode hex="0047"/>
  <outline>
    <contour>
      <point x="628" y="-20" type="curve" smooth="yes"/>
      <point x="914" y="-20"/>
      <point x="1018" y="186"/>
      <point x="1018" y="502" type="curve"/>
      <point x="974" y="502" type="line"/>
      <point x="974" y="183"/>
      <point x="824" y="50"/>
      <point x="627" y="50" type="curve" smooth="yes"/>
      <point x="348" y="50"/>
      <point x="186" y="281"/>
      <point x="186" y="585" type="curve" smooth="yes"/>
      <point x="186" y="944"/>
      <point x="415" y="1163"/>
      <point x="676" y="1163" type="curve" smooth="yes"/>
      <point x="792" y="1163"/>
      <point x="908" y="1119"/>
      <point x="1021" y="1009" type="curve"/>
      <point x="1072" y="1057" type="line"/>
      <point x="952" y="1177"/>
      <point x="824" y="1231"/>
      <point x="676" y="1231" type="curve" smooth="yes"/>
      <point x="390" y="1231"/>
      <point x="110" y="1030"/>
      <point x="110" y="585" type="curve" smooth="yes"/>
      <point x="110" y="204"/>
      <point x="346" y="-20"/>
    </contour>
    <contour>
      <point x="996" y="0" type="line"/>
      <point x="1050" y="0" type="line"/>
      <point x="1050" y="577" type="line"/>
      <point x="633" y="577" type="line"/>
      <point x="633" y="516" type="line"/>
      <point x="974" y="502" type="line"/>
      <point x="974" y="306" type="line"/>
    </contour>
  </outline>
</glyph>
<glyph name="H" format="2">
  <advance width="1261.15"/>
  <unicode hex="0048"/>
  <outline>
    <contour>
      <point x="218" y="1213" type="line"/>
      <point x="218" y="0" type="line"/>
      <point x="292" y="0" type="line"/>
      <point x="292" y="586" type="line"/>
      <point x="972" y="586" type="line"/>
      <point x="972" y="0" type="line"/>
      <point x="1042" y="0" type="line"/>
      <point x="1042" y="1213" type="line"/>
      <point x="972" y="1213" type="line"/>
      <point x="972" y="647" type="line"/>
      <point x="292" y="647" type="line"/>
      <point x="292" y="1213" type="line"/>
    </contour>
  </outline>
</glyph>
<glyph name="I" format="2">
  <advance width="509.775"/>
  <unicode hex="0049"/>
  <anchor x="255" y="1215" name="above"/>
  <outline>
    <contour>
      <point x="218" y="0" type="line"/>
      <point x="292" y="0" type="line"/>
      <point x="292" y="1213" type="line"/>
      <point x="218" y="1213" type="line"/>
    </contour>
  </outline>
</glyph>
<glyph name="J" format="2">
  <advance width="725"/>
  <unicode hex="004A"/>
  <outline>
    <contour>
      <point x="0" y="70" type="line"/>
      <point x="81" y="18"/>
      <point x="163" y="-20"/>
      <point x="261" y="-20" type="curve" smooth="yes"/>
      <point x="453" y="-20"/>
      <point x="558" y="90"/>
      <point x="558" y="323" type="curve" smooth="yes"/>
      <point x="558" y="1213" type="line"/>
      <point x="486" y="1213" type="line"/>
      <point x="486" y="323" type="line" smooth="yes"/>
      <point x="486" y="159"/>
      <point x="428" y="52"/>
      <point x="261" y="52" type="curve" smooth="yes"/>
      <point x="169" y="52"/>
      <point x="81" y="94"/>
      <point x="0" y="156" type="curve"/>
    </contour>
  </outline>
</glyph>
<glyph name="K" format="2">
  <advance width="1119.675"/>
  <unicode hex="004B"/>
  <outline>
    <contour>
      <point x="912" y="1213" type="line"/>
      <point x="270" y="554" type="line"/>
      <point x="270" y="438" type="line"/>
      <point x="1017" y="1213" type="line"/>
    </contour>
    <contour>
      <point x="478" y="689" type="line"/>
      <point x="419" y="640" type="line"/>
      <point x="947" y="0" type="line"/>
      <point x="1049" y="0" type="line"/>
    </contour>
    <contour>
      <point x="218" y="1213" type="line"/>
      <point x="218" y="0" type="line"/>
      <point x="294" y="0" type="line"/>
      <point x="294" y="1213" type="line"/>
    </contour>
  </outline>
</glyph>
<glyph name="L" format="2">
  <advance width="880.675"/>
  <unicode hex="004C"/>
  <outline>
    <contour>
      <point x="292" y="1213" type="line"/>
      <point x="218" y="1213" type="line"/>
      <point x="218" y="0" type="line"/>
      <point x="879" y="0" type="line"/>
      <point x="879" y="64" type="line"/>
      <point x="292" y="64" type="line"/>
    </contour>
  </outline>
</glyph>
<glyph name="M" format="2">
  <advance width="1637.625"/>
  <unicode hex="004D"/>
  <outline>
    <contour>
      <point x="218" y="1213" type="line"/>
      <point x="218" y="0" type="line"/>
      <point x="292" y="0" type="line"/>
      <point x="292" y="1156" type="line"/>
      <point x="279" y="1156" type="line"/>
      <point x="794" y="174" type="line"/>
      <point x="847" y="174" type="line"/>
      <point x="1364" y="1164" type="line"/>
      <point x="1344" y="1164" type="line"/>
      <point x="1344" y="0" type="line"/>
      <point x="1420" y="0" type="line"/>
      <point x="1420" y="1213" type="line"/>
      <point x="1313" y="1213" type="line"/>
      <point x="813" y="269" type="line"/>
      <point x="825" y="269" type="line"/>
      <point x="326" y="1213" type="line"/>
    </contour>
  </outline>
</glyph>
<glyph name="N" format="2">
  <advance width="1300.35"/>
  <unicode hex="004E"/>
  <anchor x="649" y="1215" name="above"/>
  <outline>
    <contour>
      <point x="218" y="1213" type="line"/>
      <point x="218" y="0" type="line"/>
      <point x="292" y="0" type="line"/>
      <point x="292" y="1156" type="line"/>
      <point x="283" y="1156" type="line"/>
      <point x="976" y="0" type="line"/>
      <point x="1082" y="0" type="line"/>
      <point x="1082" y="1213" type="line"/>
      <point x="1008" y="1213" type="line"/>
      <point x="1008" y="68" type="line"/>
      <point x="1018" y="68" type="line"/>
      <point x="331" y="1213" type="line"/>
    </contour>
  </outline>
</glyph>
<glyph name="O" format="2">
  <advance width="1215.15"/>
  <unicode hex="004F"/>
  <anchor x="609" y="1215" name="above"/>
  <outline>
    <contour>
      <point x="609" y="-20" type="curve" smooth="yes"/>
      <point x="884" y="-20"/>
      <point x="1106" y="180"/>
      <point x="1106" y="601" type="curve" smooth="yes"/>
      <point x="1106" y="1027"/>
      <point x="884" y="1231"/>
      <point x="609" y="1231" type="curve" smooth="yes"/>
      <point x="332" y="1231"/>
      <point x="110" y="1025"/>
      <point x="110" y="601" type="curve" smooth="yes"/>
      <point x="110" y="182"/>
      <point x="332" y="-20"/>
    </contour>
    <contour>
      <point x="609" y="52" type="curve" smooth="yes"/>
      <point x="348" y="52"/>
      <point x="188" y="237"/>
      <point x="188" y="601" type="curve" smooth="yes"/>
      <point x="188" y="966"/>
      <point x="348" y="1165"/>
      <point x="609" y="1165" type="curve" smooth="yes"/>
      <point x="870" y="1165"/>
      <point x="1028" y="966"/>
      <point x="1028" y="603" type="curve" smooth="yes"/>
      <point x="1028" y="237"/>
      <point x="870" y="52"/>
    </contour>
  </outline>
</glyph>
<glyph name="P" format="2">
  <advance width="1051.65"/>
  <unicode hex="0050"/>
  <outline>
    <contour>
      <point x="216" y="0" type="line"/>
      <point x="292" y="0" type="line"/>
      <point x="292" y="496" type="line"/>
      <point x="565" y="496" type="line" smooth="yes"/>
      <point x="825" y="496"/>
      <point x="952" y="642"/>
      <point x="952" y="852" type="curve" smooth="yes"/>
      <point x="952" y="1063"/>
      <point x="825" y="1213"/>
      <point x="565" y="1213" type="curve" smooth="yes"/>
      <point x="216" y="1213" type="line"/>
    </contour>
    <contour>
      <point x="292" y="561" type="line"/>
      <point x="292" y="1151" type="line"/>
      <point x="565" y="1151" type="line" smooth="yes"/>
      <point x="768" y="1151"/>
      <point x="876" y="1038"/>
      <point x="876" y="852" type="curve" smooth="yes"/>
      <point x="876" y="667"/>
      <point x="768" y="561"/>
      <point x="565" y="561" type="curve" smooth="yes"/>
    </contour>
  </outline>
</glyph>
<glyph name="Q" format="2">
  <advance width="1232.275"/>
  <unicode hex="0051"/>
  <outline>
    <contour>
      <point x="609" y="-20" type="curve" smooth="yes"/>
      <point x="884" y="-20"/>
      <point x="1106" y="180"/>
      <point x="1106" y="601" type="curve" smooth="yes"/>
      <point x="1106" y="1027"/>
      <point x="884" y="1231"/>
      <point x="609" y="1231" type="curve" smooth="yes"/>
      <point x="332" y="1231"/>
      <point x="110" y="1025"/>
      <point x="110" y="601" type="curve" smooth="yes"/>
      <point x="110" y="182"/>
      <point x="332" y="-20"/>
    </contour>
    <contour>
      <point x="963" y="-307" type="curve" smooth="yes"/>
      <point x="1012" y="-307"/>
      <point x="1064" y="-293"/>
      <point x="1122" y="-267" type="curve"/>
      <point x="1122" y="-169" type="line"/>
      <point x="1054" y="-205"/>
      <point x="1002" y="-227"/>
      <point x="928" y="-227" type="curve" smooth="yes"/>
      <point x="889" y="-225"/>
      <point x="845" y="-201"/>
      <point x="794" y="-137" type="curve" smooth="yes"/>
      <point x="678" y="15" type="line"/>
      <point x="588" y="16" type="line"/>
      <point x="714" y="-154" type="line" smooth="yes"/>
      <point x="789" y="-258"/>
      <point x="859" y="-307"/>
    </contour>
    <contour>
      <point x="609" y="52" type="curve" smooth="yes"/>
      <point x="348" y="52"/>
      <point x="188" y="237"/>
      <point x="188" y="601" type="curve" smooth="yes"/>
      <point x="188" y="966"/>
      <point x="348" y="1165"/>
      <point x="609" y="1165" type="curve" smooth="yes"/>
      <point x="870" y="1165"/>
      <point x="1028" y="966"/>
      <point x="1028" y="603" type="curve" smooth="yes"/>
      <point x="1028" y="237"/>
      <point x="870" y="52"/>
    </contour>
  </outline>
</glyph>
<glyph name="R" format="2">
  <advance width="1161.45"/>
  <unicode hex="0052"/>
  <outline>
    <contour>
      <point x="218" y="0" type="line"/>
      <point x="292" y="0" type="line"/>
      <point x="292" y="522" type="line"/>
      <point x="613" y="522" type="line" smooth="yes"/>
      <point x="875" y="522"/>
      <point x="1002" y="664"/>
      <point x="1002" y="868" type="curve" smooth="yes"/>
      <point x="1002" y="1071"/>
      <point x="875" y="1213"/>
      <point x="613" y="1213" type="curve" smooth="yes"/>
      <point x="218" y="1213" type="line"/>
    </contour>
    <contour>
      <point x="924" y="0" type="line"/>
      <point x="1018" y="0" type="line"/>
      <point x="634" y="531" type="line"/>
      <point x="548" y="531" type="line"/>
    </contour>
    <contour>
      <point x="292" y="583" type="line"/>
      <point x="292" y="1151" type="line"/>
      <point x="613" y="1151" type="line" smooth="yes"/>
      <point x="816" y="1151"/>
      <point x="926" y="1044"/>
      <point x="926" y="870" type="curve" smooth="yes"/>
      <point x="926" y="699"/>
      <point x="816" y="583"/>
      <point x="614" y="583" type="curve" smooth="yes"/>
    </contour>
  </outline>
</glyph>
<glyph name="S" format="2">
  <advance width="1141.35"/>
  <unicode hex="0053"/>
  <outline>
    <contour>
      <point x="569" y="-20" type="curve" smooth="yes"/>
      <point x="849" y="-20"/>
      <point x="994" y="148"/>
      <point x="994" y="314" type="curve" smooth="yes"/>
      <point x="994" y="488"/>
      <point x="876" y="585"/>
      <point x="708" y="631" type="curve" smooth="yes"/>
      <point x="473" y="701" type="line" smooth="yes"/>
      <point x="326" y="747"/>
      <point x="262" y="807"/>
      <point x="262" y="919" type="curve" smooth="yes"/>
      <point x="262" y="1060"/>
      <point x="372" y="1163"/>
      <point x="571" y="1163" type="curve" smooth="yes"/>
      <point x="746" y="1163"/>
      <point x="850" y="1095"/>
      <point x="872" y="964" type="curve"/>
      <point x="946" y="964" type="line"/>
      <point x="924" y="1119"/>
      <point x="792" y="1231"/>
      <point x="571" y="1231" type="curve" smooth="yes"/>
      <point x="318" y="1231"/>
      <point x="182" y="1103"/>
      <point x="182" y="925" type="curve" smooth="yes"/>
      <point x="182" y="762"/>
      <point x="288" y="688"/>
      <point x="504" y="618" type="curve" smooth="yes"/>
      <point x="692" y="565" type="line" smooth="yes"/>
      <point x="832" y="523"/>
      <point x="914" y="440"/>
      <point x="914" y="314" type="curve" smooth="yes"/>
      <point x="914" y="183"/>
      <point x="788" y="50"/>
      <point x="567" y="50" type="curve" smooth="yes"/>
      <point x="381" y="50"/>
      <point x="216" y="143"/>
      <point x="216" y="345" type="curve"/>
      <point x="146" y="345" type="line"/>
      <point x="144" y="118"/>
      <point x="336" y="-20"/>
    </contour>
  </outline>
</glyph>
<glyph name="T" format="2">
  <advance width="937.45"/>
  <unicode hex="0054"/>
  <outline>
    <contour>
      <point x="12" y="1151" type="line"/>
      <point x="430" y="1151" type="line"/>
      <point x="430" y="0" type="line"/>
      <point x="504" y="0" type="line"/>
      <point x="504" y="1151" type="line"/>
      <point x="926" y="1151" type="line"/>
      <point x="926" y="1213" type="line"/>
      <point x="12" y="1213" type="line"/>
    </contour>
  </outline>
</glyph>
<glyph name="U" format="2">
  <advance width="1230.15"/>
  <unicode hex="0055"/>
  <anchor x="611" y="1215" name="above"/>
  <outline>
    <contour>
      <point x="182" y="1213" type="line"/>
      <point x="182" y="417" type="line" smooth="yes"/>
      <point x="182" y="113"/>
      <point x="362" y="-20"/>
      <point x="611" y="-20" type="curve" smooth="yes"/>
      <point x="860" y="-20"/>
      <point x="1036" y="113"/>
      <point x="1036" y="417" type="curve" smooth="yes"/>
      <point x="1036" y="1213" type="line"/>
      <point x="962" y="1213" type="line"/>
      <point x="962" y="417" type="line" smooth="yes"/>
      <point x="962" y="159"/>
      <point x="822" y="50"/>
      <point x="611" y="50" type="curve" smooth="yes"/>
      <point x="396" y="50"/>
      <point x="256" y="159"/>
      <point x="256" y="417" type="curve" smooth="yes"/>
      <point x="256" y="1213" type="line"/>
    </contour>
  </outline>
</glyph>
<glyph name="V" format="2">
  <advance width="1043"/>
  <unicode hex="0056"/>
  <outline>
    <contour>
      <point x="513" y="72" type="line"/>
      <point x="529" y="72" type="line"/>
      <point x="116" y="1213" type="line"/>
      <point x="36" y="1213" type="line"/>
      <point x="484" y="0" type="line"/>
      <point x="558" y="0" type="line"/>
      <point x="1008" y="1213" type="line"/>
      <point x="926" y="1213" type="line"/>
    </contour>
  </outline>
</glyph>
<glyph name="W" format="2">
  <advance width="1680.375"/>
  <unicode hex="0057"/>
  <outline>
    <contour>
      <point x="36" y="1213" type="line"/>
      <point x="408" y="0" type="line"/>
      <point x="485" y="0" type="line"/>
      <point x="833" y="940" type="line"/>
      <point x="794" y="940" type="line"/>
      <point x="1121" y="0" type="line"/>
      <point x="1199" y="0" type="line"/>
      <point x="1641" y="1213" type="line"/>
      <point x="1561" y="1213" type="line"/>
      <point x="1142" y="66" type="line"/>
      <point x="1176" y="66" type="line"/>
      <point x="838" y="1038" type="line"/>
      <point x="787" y="1038" type="line"/>
      <point x="429" y="66" type="line"/>
      <point x="460" y="66" type="line"/>
      <point x="122" y="1213" type="line"/>
    </contour>
  </outline>
</glyph>
<glyph name="X" format="2">
  <advance width="1196.9"/>
  <unicode hex="0058"/>
  <outline>
    <contour>
      <point x="129" y="0" type="line"/>
      <point x="216" y="0" type="line"/>
      <point x="591" y="543" type="line"/>
      <point x="978" y="0" type="line"/>
      <point x="1063" y="0" type="line"/>
      <point x="642" y="601" type="line"/>
      <point x="1076" y="1213" type="line"/>
      <point x="984" y="1213" type="line"/>
      <point x="603" y="656" type="line"/>
      <point x="206" y="1213" type="line"/>
      <point x="123" y="1213" type="line"/>
      <point x="554" y="601" type="line"/>
    </contour>
  </outline>
</glyph>
<glyph name="Z" format="2">
  <advance width="1107.15"/>
  <unicode hex="005A"/>
  <outline>
    <contour>
      <point x="146" y="0" type="line"/>
      <point x="1007" y="0" type="line"/>
      <point x="1007" y="66" type="line"/>
      <point x="203" y="76" type="line"/>
      <point x="222" y="54" type="line"/>
      <point x="1007" y="1137" type="line"/>
      <point x="1007" y="1213" type="line"/>
      <point x="146" y="1213" type="line"/>
      <point x="146" y="1147" type="line"/>
      <point x="932" y="1137" type="line"/>
      <point x="932" y="1166" type="line"/>
      <point x="146" y="74" type="line"/>
    </contour>
  </outline>
</glyph>
<glyph name="bracketleft" format="2">
  <advance width="558.2"/>
  <unicode hex="005B"/>
  <outline>
    <contour>
      <point x="218" y="-120" type="line"/>
      <point x="510" y="-120" type="line"/>
      <point x="510" y="-60" type="line"/>
      <point x="292" y="-60" type="line"/>
      <point x="292" y="1277" type="line"/>
      <point x="510" y="1277" type="line"/>
      <point x="510" y="1337" type="line"/>
      <point x="218" y="1337" type="line"/>
    </contour>
  </outline>
</glyph>
<glyph name="asciicircum" format="2">
  <advance width="725.95"/>
  <unicode hex="005E"/>
  <outline>
    <contour>
      <point x="44" y="545" type="line"/>
      <point x="134" y="545" type="line"/>
      <point x="386" y="1067" type="line"/>
      <point x="360" y="1067" type="line"/>
      <point x="616" y="545" type="line"/>
      <point x="702" y="545" type="line"/>
      <point x="399" y="1137" type="line"/>
      <point x="347" y="1137" type="line"/>
    </contour>
  </outline>
</glyph>
<glyph name="grave" format="2">
  <advance width="538.85"/>
  <unicode hex="0060"/>
  <anchor x="271" y="1215" name="_above"/>
  <outline>
    <contour>
      <point x="48" y="1564" type="line"/>
      <point x="464" y="1319" type="line"/>
      <point x="496" y="1366" type="line"/>
      <point x="92" y="1634" type="line"/>
    </contour>
  </outline>
</glyph>
<glyph name="a" format="2">
  <advance width="1030.275"/>
  <unicode hex="0061"/>
  <anchor x="527" y="971" name="above"/>
  <outline>
    <contour>
      <point x="784" y="0" type="line"/>
      <point x="848" y="0" type="line"/>
      <point x="848" y="614" type="line" smooth="yes"/>
      <point x="848" y="868"/>
      <point x="702" y="962"/>
      <point x="515" y="962" type="curve" smooth="yes"/>
      <point x="334" y="962"/>
      <point x="168" y="896"/>
      <point x="168" y="700" type="curve"/>
      <point x="256" y="700" type="line"/>
      <point x="256" y="847"/>
      <point x="381" y="899"/>
      <point x="515" y="899" type="curve" smooth="yes"/>
      <point x="675" y="899"/>
      <point x="774" y="823"/>
      <point x="774" y="614" type="curve" smooth="yes"/>
      <point x="774" y="183" type="line"/>
    </contour>
    <contour>
      <point x="450" y="-20" type="curve" smooth="yes"/>
      <point x="651" y="-20"/>
      <point x="794" y="138"/>
      <point x="794" y="311" type="curve"/>
      <point x="774" y="311" type="line"/>
      <point x="774" y="187"/>
      <point x="615" y="43"/>
      <point x="449" y="43" type="curve" smooth="yes"/>
      <point x="280" y="43"/>
      <point x="208" y="135"/>
      <point x="208" y="252" type="curve" smooth="yes"/>
      <point x="208" y="406"/>
      <point x="329" y="465"/>
      <point x="473" y="465" type="curve" smooth="yes"/>
      <point x="565" y="465"/>
      <point x="694" y="438"/>
      <point x="780" y="398" type="curve"/>
      <point x="780" y="455" type="line"/>
      <point x="682" y="497"/>
      <point x="567" y="524"/>
      <point x="474" y="524" type="curve" smooth="yes"/>
      <point x="296" y="524"/>
      <point x="130" y="456"/>
      <point x="130" y="252" type="curve" smooth="yes"/>
      <point x="130" y="122"/>
      <point x="228" y="-20"/>
    </contour>
  </outline>
</glyph>
<glyph name="b" format="2">
  <advance width="1140.925"/>
  <unicode hex="0062"/>
  <outline>
    <contour>
      <point x="597" y="-20" type="curve" smooth="yes"/>
      <point x="815" y="-20"/>
      <point x="1005" y="170"/>
      <point x="1005" y="474" type="curve" smooth="yes"/>
      <point x="1005" y="778"/>
      <point x="815" y="962"/>
      <point x="599" y="962" type="curve" smooth="yes"/>
      <point x="395" y="962"/>
      <point x="245" y="804"/>
      <point x="245" y="554" type="curve"/>
      <point x="292" y="554" type="line"/>
      <point x="292" y="783"/>
      <point x="443" y="899"/>
      <point x="597" y="899" type="curve" smooth="yes"/>
      <point x="772" y="899"/>
      <point x="924" y="745"/>
      <point x="924" y="474" type="curve" smooth="yes"/>
      <point x="924" y="201"/>
      <point x="770" y="44"/>
      <point x="599" y="44" type="curve" smooth="yes"/>
      <point x="443" y="44"/>
      <point x="292" y="158"/>
      <point x="292" y="385" type="curve"/>
      <point x="245" y="385" type="line"/>
      <point x="245" y="136"/>
      <point x="395" y="-20"/>
    </contour>
    <contour>
      <point x="218" y="0" type="line"/>
      <point x="283" y="0" type="line"/>
      <point x="292" y="208" type="line"/>
      <point x="292" y="1356" type="line"/>
      <point x="218" y="1356" type="line"/>
    </contour>
  </outline>
</glyph>
<glyph name="c" format="2">
  <advance width="1004.325"/>
  <unicode hex="0063"/>
  <outline>
    <contour>
      <point x="522" y="-20" type="curve" smooth="yes"/>
      <point x="725" y="-20"/>
      <point x="881" y="104"/>
      <point x="881" y="297" type="curve"/>
      <point x="801" y="297" type="line"/>
      <point x="801" y="135"/>
      <point x="696" y="44"/>
      <point x="520" y="44" type="curve" smooth="yes"/>
      <point x="325" y="44"/>
      <point x="190" y="229"/>
      <point x="190" y="474" type="curve" smooth="yes"/>
      <point x="190" y="745"/>
      <point x="349" y="899"/>
      <point x="520" y="899" type="curve" smooth="yes"/>
      <point x="652" y="899"/>
      <point x="755" y="823"/>
      <point x="801" y="687" type="curve"/>
      <point x="881" y="709" type="line"/>
      <point x="821" y="856"/>
      <point x="701" y="962"/>
      <point x="522" y="962" type="curve" smooth="yes"/>
      <point x="306" y="962"/>
      <point x="110" y="775"/>
      <point x="110" y="474" type="curve" smooth="yes"/>
      <point x="110" y="170"/>
      <point x="306" y="-20"/>
    </contour>
  </outline>
</glyph>
<glyph name="d" format="2">
  <advance width="1140.925"/>
  <unicode hex="0064"/>
  <outline>
    <contour>
      <point x="544" y="-20" type="curve" smooth="yes"/>
      <point x="746" y="-20"/>
      <point x="894" y="136"/>
      <point x="894" y="385" type="curve"/>
      <point x="849" y="385" type="line"/>
      <point x="849" y="158"/>
      <point x="692" y="44"/>
      <point x="544" y="44" type="curve" smooth="yes"/>
      <point x="369" y="44"/>
      <point x="214" y="201"/>
      <point x="214" y="474" type="curve" smooth="yes"/>
      <point x="214" y="745"/>
      <point x="371" y="899"/>
      <point x="542" y="899" type="curve" smooth="yes"/>
      <point x="700" y="899"/>
      <point x="849" y="783"/>
      <point x="849" y="554" type="curve"/>
      <point x="894" y="554" type="line"/>
      <point x="894" y="804"/>
      <point x="744" y="962"/>
      <point x="540" y="962" type="curve" smooth="yes"/>
      <point x="324" y="962"/>
      <point x="134" y="778"/>
      <point x="134" y="474" type="curve" smooth="yes"/>
      <point x="134" y="170"/>
      <point x="324" y="-20"/>
    </contour>
    <contour>
      <point x="856" y="0" type="line"/>
      <point x="921" y="0" type="line"/>
      <point x="921" y="1356" type="line"/>
      <point x="849" y="1356" type="line"/>
      <point x="849" y="208" type="line"/>
    </contour>
  </outline>
</glyph>
<glyph name="e" format="2">
  <advance width="993.175"/>
  <unicode hex="0065"/>
  <anchor x="508" y="971" name="above"/>
  <outline>
    <contour>
      <point x="520" y="-20" type="curve" smooth="yes"/>
      <point x="707" y="-20"/>
      <point x="851" y="82"/>
      <point x="881" y="274" type="curve"/>
      <point x="797" y="274" type="line"/>
      <point x="779" y="123"/>
      <point x="676" y="45"/>
      <point x="520" y="45" type="curve" smooth="yes"/>
      <point x="295" y="45"/>
      <point x="186" y="229"/>
      <point x="186" y="466" type="curve" smooth="yes"/>
      <point x="186" y="500" type="line" smooth="yes"/>
      <point x="186" y="700"/>
      <point x="295" y="899"/>
      <point x="520" y="899" type="curve" smooth="yes"/>
      <point x="749" y="899"/>
      <point x="808" y="684"/>
      <point x="800" y="498" type="curve"/>
      <point x="846" y="528" type="line"/>
      <point x="173" y="528" type="line"/>
      <point x="173" y="464" type="line"/>
      <point x="883" y="464" type="line"/>
      <point x="883" y="720"/>
      <point x="789" y="962"/>
      <point x="520" y="962" type="curve" smooth="yes"/>
      <point x="270" y="962"/>
      <point x="110" y="774"/>
      <point x="110" y="466" type="curve" smooth="yes"/>
      <point x="110" y="188"/>
      <point x="272" y="-20"/>
    </contour>
  </outline>
</glyph>
<glyph name="f" format="2">
  <advance width="633.75"/>
  <unicode hex="0066"/>
  <outline>
    <contour>
      <point x="266" y="0" type="line"/>
      <point x="338" y="0" type="line"/>
      <point x="338" y="1120" type="line" smooth="yes"/>
      <point x="338" y="1279"/>
      <point x="433" y="1307"/>
      <point x="505" y="1307" type="curve" smooth="yes"/>
      <point x="543" y="1307"/>
      <point x="587" y="1299"/>
      <point x="633" y="1279" type="curve"/>
      <point x="647" y="1344" type="line"/>
      <point x="601" y="1362"/>
      <point x="557" y="1368"/>
      <point x="514" y="1368" type="curve" smooth="yes"/>
      <point x="368" y="1368"/>
      <point x="266" y="1290"/>
      <point x="266" y="1120" type="curve" smooth="yes"/>
    </contour>
    <contour>
      <point x="98" y="883" type="line"/>
      <point x="557" y="883" type="line"/>
      <point x="557" y="942" type="line"/>
      <point x="98" y="942" type="line"/>
    </contour>
  </outline>
</glyph>
<glyph name="g" format="2">
  <advance width="1093.125"/>
  <unicode hex="0067"/>
  <outline>
    <contour>
      <point x="520" y="-482" type="curve" smooth="yes"/>
      <point x="870" y="-482"/>
      <point x="1071" y="-306"/>
      <point x="1071" y="-141" type="curve" smooth="yes"/>
      <point x="1071" y="-27"/>
      <point x="978" y="59"/>
      <point x="824" y="59" type="curve" smooth="yes"/>
      <point x="405" y="59" type="line" smooth="yes"/>
      <point x="249" y="59"/>
      <point x="205" y="115"/>
      <point x="205" y="185" type="curve" smooth="yes"/>
      <point x="205" y="280"/>
      <point x="291" y="326"/>
      <point x="353" y="326" type="curve"/>
      <point x="354" y="363" type="line"/>
      <point x="248" y="363"/>
      <point x="132" y="304"/>
      <point x="132" y="186" type="curve" smooth="yes"/>
      <point x="132" y="90"/>
      <point x="213" y="-2"/>
      <point x="405" y="-2" type="curve" smooth="yes"/>
      <point x="824" y="-2" type="line" smooth="yes"/>
      <point x="939" y="-2"/>
      <point x="995" y="-68"/>
      <point x="995" y="-140" type="curve" smooth="yes"/>
      <point x="995" y="-289"/>
      <point x="798" y="-419"/>
      <point x="520" y="-419" type="curve" smooth="yes"/>
      <point x="273" y="-419"/>
      <point x="157" y="-315"/>
      <point x="157" y="-198" type="curve" smooth="yes"/>
      <point x="157" y="-78"/>
      <point x="247" y="-2"/>
      <point x="405" y="-2" type="curve"/>
      <point x="407" y="42" type="line"/>
      <point x="215" y="42"/>
      <point x="87" y="-40"/>
      <point x="87" y="-198" type="curve" smooth="yes"/>
      <point x="87" y="-360"/>
      <point x="267" y="-482"/>
    </contour>
    <contour>
      <point x="564" y="260" type="curve" smooth="yes"/>
      <point x="768" y="260"/>
      <point x="917" y="406"/>
      <point x="917" y="612" type="curve" smooth="yes"/>
      <point x="917" y="817"/>
      <point x="768" y="962"/>
      <point x="564" y="962" type="curve" smooth="yes"/>
      <point x="354" y="962"/>
      <point x="205" y="817"/>
      <point x="205" y="612" type="curve" smooth="yes"/>
      <point x="205" y="406"/>
      <point x="354" y="260"/>
    </contour>
    <contour>
      <point x="562" y="318" type="curve" smooth="yes"/>
      <point x="391" y="318"/>
      <point x="281" y="443"/>
      <point x="281" y="612" type="curve" smooth="yes"/>
      <point x="281" y="780"/>
      <point x="391" y="899"/>
      <point x="564" y="899" type="curve" smooth="yes"/>
      <point x="732" y="899"/>
      <point x="843" y="780"/>
      <point x="843" y="612" type="curve" smooth="yes"/>
      <point x="843" y="443"/>
      <point x="732" y="318"/>
    </contour>
    <contour>
      <point x="847" y="814" type="line"/>
      <point x="847" y="944"/>
      <point x="917" y="1004"/>
      <point x="1041" y="1004" type="curve"/>
      <point x="1053" y="1085" type="line"/>
      <point x="881" y="1085"/>
      <point x="808" y="973"/>
      <point x="808" y="811" type="curve"/>
    </contour>
  </outline>
</glyph>
<glyph name="h" format="2">
  <advance width="1167.025"/>
  <unicode hex="0068"/>
  <outline>
    <contour>
      <point x="913" y="0" type="line"/>
      <point x="983" y="0" type="line"/>
      <point x="983" y="556" type="line" smooth="yes"/>
      <point x="983" y="814"/>
      <point x="836" y="962"/>
      <point x="625" y="962" type="curve" smooth="yes"/>
      <point x="372" y="962"/>
      <point x="251" y="759"/>
      <point x="251" y="470" type="curve"/>
      <point x="292" y="470" type="line"/>
      <point x="292" y="721"/>
      <point x="409" y="899"/>
      <point x="611" y="899" type="curve" smooth="yes"/>
      <point x="800" y="899"/>
      <point x="913" y="777"/>
      <point x="913" y="556" type="curve" smooth="yes"/>
    </contour>
    <contour>
      <point x="218" y="0" type="line"/>
      <point x="292" y="0" type="line"/>
      <point x="292" y="1356" type="line"/>
      <point x="218" y="1356" type="line"/>
    </contour>
  </outline>
</glyph>
<glyph name="i" format="2">
  <advance width="534.5"/>
  <unicode hex="0069"/>
  <outline>
    <contour>
      <point x="218" y="0" type="line"/>
      <point x="292" y="0" type="line"/>
      <point x="292" y="942" type="line"/>
      <point x="218" y="942" type="line"/>
    </contour>
    <contour>
      <point x="255" y="1217" type="curve" smooth="yes"/>
      <point x="293" y="1217"/>
      <point x="316" y="1245"/>
      <point x="316" y="1278" type="curve" smooth="yes"/>
      <point x="316" y="1309"/>
      <point x="293" y="1331"/>
      <point x="255" y="1331" type="curve" smooth="yes"/>
      <point x="220" y="1331"/>
      <point x="194" y="1309"/>
      <point x="194" y="1278" type="curve" smooth="yes"/>
      <point x="194" y="1245"/>
      <point x="220" y="1217"/>
    </contour>
  </outline>
</glyph>
<glyph name="j" format="2">
  <advance width="582.925"/>
  <unicode hex="006A"/>
  <outline>
    <contour>
      <point x="63" y="-482" type="curve" smooth="yes"/>
      <point x="217" y="-482"/>
      <point x="339" y="-386"/>
      <point x="339" y="-157" type="curve" smooth="yes"/>
      <point x="339" y="946" type="line"/>
      <point x="269" y="946" type="line"/>
      <point x="269" y="-157" type="line"/>
      <point x="269" y="-327"/>
      <point x="192" y="-418"/>
      <point x="66" y="-418" type="curve" smooth="yes"/>
      <point x="-22" y="-418"/>
      <point x="-92" y="-383"/>
      <point x="-180" y="-329" type="curve"/>
      <point x="-193" y="-395" type="line"/>
      <point x="-101" y="-458"/>
      <point x="-17" y="-482"/>
    </contour>
    <contour>
      <point x="304" y="1217" type="curve" smooth="yes"/>
      <point x="341" y="1217"/>
      <point x="365" y="1245"/>
      <point x="365" y="1278" type="curve" smooth="yes"/>
      <point x="365" y="1309"/>
      <point x="341" y="1331"/>
      <point x="304" y="1331" type="curve" smooth="yes"/>
      <point x="266" y="1331"/>
      <point x="247" y="1309"/>
      <point x="247" y="1278" type="curve" smooth="yes"/>
      <point x="247" y="1245"/>
      <point x="266" y="1217"/>
    </contour>
  </outline>
</glyph>
<glyph name="k" format="2">
  <advance width="1069.6"/>
  <unicode hex="006B"/>
  <outline>
    <contour>
      <point x="218" y="0" type="line"/>
      <point x="292" y="0" type="line"/>
      <point x="292" y="1356" type="line"/>
      <point x="218" y="1356" type="line"/>
    </contour>
    <contour>
      <point x="277" y="493" type="line"/>
      <point x="277" y="407" type="line"/>
      <point x="952" y="942" type="line"/>
      <point x="838" y="942" type="line"/>
    </contour>
    <contour>
      <point x="878" y="0" type="line"/>
      <point x="972" y="0" type="line"/>
      <point x="494" y="591" type="line"/>
      <point x="404" y="590" type="line"/>
    </contour>
  </outline>
</glyph>
<glyph name="l" format="2">
  <advance width="509.775"/>
  <unicode hex="006C"/>
  <outline>
    <contour>
      <point x="218" y="0" type="line"/>
      <point x="292" y="0" type="line"/>
      <point x="292" y="1356" type="line"/>
      <point x="218" y="1356" type="line"/>
    </contour>
  </outline>
</glyph>
<glyph name="m" format="2">
  <advance width="1843.325"/>
  <unicode hex="006D"/>
  <outline>
    <contour>
      <point x="1589" y="0" type="line"/>
      <point x="1661" y="0" type="line"/>
      <point x="1661" y="556" type="line" smooth="yes"/>
      <point x="1661" y="814"/>
      <point x="1517" y="962"/>
      <point x="1303" y="962" type="curve" smooth="yes"/>
      <point x="1055" y="962"/>
      <point x="937" y="769"/>
      <point x="937" y="489" type="curve"/>
      <point x="983" y="489" type="line"/>
      <point x="983" y="729"/>
      <point x="1085" y="899"/>
      <point x="1292" y="899" type="curve" smooth="yes"/>
      <point x="1477" y="899"/>
      <point x="1589" y="777"/>
      <point x="1589" y="556" type="curve" smooth="yes"/>
    </contour>
    <contour>
      <point x="218" y="0" type="line"/>
      <point x="292" y="0" type="line"/>
      <point x="292" y="470" type="line" smooth="yes"/>
      <point x="292" y="721"/>
      <point x="409" y="899"/>
      <point x="611" y="899" type="curve" smooth="yes"/>
      <point x="800" y="899"/>
      <point x="913" y="777"/>
      <point x="913" y="556" type="curve" smooth="yes"/>
      <point x="913" y="0" type="line"/>
      <point x="983" y="0" type="line"/>
      <point x="983" y="556" type="line" smooth="yes"/>
      <point x="983" y="814"/>
      <point x="836" y="962"/>
      <point x="625" y="962" type="curve" smooth="yes"/>
      <point x="456" y="962"/>
      <point x="344" y="871"/>
      <point x="288" y="723" type="curve"/>
      <point x="279" y="942" type="line"/>
      <point x="218" y="942" type="line"/>
    </contour>
  </outline>
</glyph>
<glyph name="o" format="2">
  <advance width="1053.025"/>
  <unicode hex="006F"/>
  <anchor x="528" y="971" name="above"/>
  <outline>
    <contour>
      <point x="528" y="-20" type="curve" smooth="yes"/>
      <point x="777" y="-20"/>
      <point x="945" y="158"/>
      <point x="945" y="472" type="curve" smooth="yes"/>
      <point x="945" y="783"/>
      <point x="777" y="962"/>
      <point x="528" y="962" type="curve" smooth="yes"/>
      <point x="278" y="962"/>
      <point x="110" y="783"/>
      <point x="110" y="472" type="curve" smooth="yes"/>
      <point x="110" y="158"/>
      <point x="278" y="-20"/>
    </contour>
    <contour>
      <point x="528" y="44" type="curve" smooth="yes"/>
      <point x="294" y="44"/>
      <point x="190" y="221"/>
      <point x="190" y="472" type="curve" smooth="yes"/>
      <point x="190" y="722"/>
      <point x="292" y="899"/>
      <point x="527" y="899" type="curve" smooth="yes"/>
      <point x="761" y="899"/>
      <point x="867" y="722"/>
      <point x="867" y="472" type="curve" smooth="yes"/>
      <point x="867" y="221"/>
      <point x="761" y="44"/>
    </contour>
  </outline>
</glyph>
<glyph name="p" format="2">
  <advance width="1116.725"/>
  <unicode hex="0070"/>
  <outline>
    <contour>
      <point x="599" y="-20" type="curve" smooth="yes"/>
      <point x="813" y="-20"/>
      <point x="1005" y="166"/>
      <point x="1005" y="474" type="curve" smooth="yes"/>
      <point x="1005" y="776"/>
      <point x="815" y="962"/>
      <point x="597" y="962" type="curve" smooth="yes"/>
      <point x="393" y="962"/>
      <point x="247" y="805"/>
      <point x="247" y="556" type="curve"/>
      <point x="292" y="556" type="line"/>
      <point x="292" y="783"/>
      <point x="445" y="899"/>
      <point x="597" y="899" type="curve" smooth="yes"/>
      <point x="772" y="899"/>
      <point x="924" y="745"/>
      <point x="924" y="474" type="curve" smooth="yes"/>
      <point x="924" y="201"/>
      <point x="768" y="44"/>
      <point x="598" y="44" type="curve" smooth="yes"/>
      <point x="443" y="44"/>
      <point x="292" y="161"/>
      <point x="292" y="388" type="curve"/>
      <point x="247" y="388" type="line"/>
      <point x="247" y="138"/>
      <point x="393" y="-20"/>
    </contour>
    <contour>
      <point x="218" y="-466" type="line"/>
      <point x="292" y="-466" type="line"/>
      <point x="292" y="734" type="line"/>
      <point x="283" y="942" type="line"/>
      <point x="218" y="942" type="line"/>
    </contour>
  </outline>
</glyph>
<glyph name="q" format="2">
  <advance width="1116.725"/>
  <unicode hex="0071"/>
  <outline>
    <contour>
      <point x="520" y="-20" type="curve" smooth="yes"/>
      <point x="722" y="-20"/>
      <point x="870" y="140"/>
      <point x="870" y="388" type="curve"/>
      <point x="824" y="388" type="line"/>
      <point x="824" y="157"/>
      <point x="672" y="44"/>
      <point x="517" y="44" type="curve" smooth="yes"/>
      <point x="345" y="44"/>
      <point x="190" y="201"/>
      <point x="190" y="474" type="curve" smooth="yes"/>
      <point x="190" y="745"/>
      <point x="347" y="899"/>
      <point x="517" y="899" type="curve" smooth="yes"/>
      <point x="670" y="899"/>
      <point x="824" y="783"/>
      <point x="824" y="556" type="curve"/>
      <point x="872" y="556" type="line"/>
      <point x="872" y="805"/>
      <point x="724" y="962"/>
      <point x="520" y="962" type="curve" smooth="yes"/>
      <point x="304" y="962"/>
      <point x="110" y="776"/>
      <point x="110" y="474" type="curve" smooth="yes"/>
      <point x="110" y="166"/>
      <point x="302" y="-20"/>
    </contour>
    <contour>
      <point x="1017" y="-482" type="curve"/>
      <point x="1053" y="-415" type="line"/>
      <point x="930" y="-371"/>
      <point x="894" y="-329"/>
      <point x="894" y="-174" type="curve" smooth="yes"/>
      <point x="894" y="942" type="line"/>
      <point x="835" y="942" type="line"/>
      <point x="824" y="734" type="line"/>
      <point x="824" y="-173" type="line" smooth="yes"/>
      <point x="824" y="-350"/>
      <point x="872" y="-436"/>
    </contour>
  </outline>
</glyph>
<glyph name="r" format="2">
  <advance width="659.45"/>
  <unicode hex="0072"/>
  <outline>
    <contour>
      <point x="218" y="0" type="line"/>
      <point x="292" y="0" type="line"/>
      <point x="292" y="942" type="line"/>
      <point x="218" y="942" type="line"/>
    </contour>
    <contour>
      <point x="255" y="438" type="curve"/>
      <point x="292" y="438" type="line"/>
      <point x="292" y="701"/>
      <point x="344" y="896"/>
      <point x="528" y="896" type="curve" smooth="yes"/>
      <point x="564" y="896"/>
      <point x="619" y="882"/>
      <point x="659" y="866" type="curve"/>
      <point x="675" y="936" type="line"/>
      <point x="631" y="952"/>
      <point x="590" y="960"/>
      <point x="538" y="960" type="curve" smooth="yes"/>
      <point x="328" y="960"/>
      <point x="255" y="784"/>
    </contour>
  </outline>
</glyph>
<glyph name="s" format="2">
  <advance width="1046.9"/>
  <unicode hex="0073"/>
  <outline>
    <contour>
      <point x="544" y="-20" type="curve" smooth="yes"/>
      <point x="774" y="-20"/>
      <point x="903" y="106"/>
      <point x="903" y="240" type="curve" smooth="yes"/>
      <point x="903" y="366"/>
      <point x="809" y="442"/>
      <point x="631" y="490" type="curve" smooth="yes"/>
      <point x="482" y="531" type="line" smooth="yes"/>
      <point x="331" y="571"/>
      <point x="259" y="632"/>
      <point x="259" y="720" type="curve" smooth="yes"/>
      <point x="259" y="806"/>
      <point x="351" y="899"/>
      <point x="512" y="899" type="curve" smooth="yes"/>
      <point x="670" y="899"/>
      <point x="765" y="851"/>
      <point x="783" y="746" type="curve"/>
      <point x="867" y="746" type="line"/>
      <point x="859" y="868"/>
      <point x="731" y="962"/>
      <point x="512" y="962" type="curve" smooth="yes"/>
      <point x="318" y="962"/>
      <point x="183" y="868"/>
      <point x="183" y="724" type="curve" smooth="yes"/>
      <point x="183" y="600"/>
      <point x="275" y="510"/>
      <point x="447" y="464" type="curve" smooth="yes"/>
      <point x="606" y="421" type="line" smooth="yes"/>
      <point x="761" y="382"/>
      <point x="828" y="334"/>
      <point x="828" y="240" type="curve" smooth="yes"/>
      <point x="828" y="127"/>
      <point x="691" y="45"/>
      <point x="544" y="45" type="curve" smooth="yes"/>
      <point x="351" y="45"/>
      <point x="235" y="123"/>
      <point x="227" y="272" type="curve"/>
      <point x="147" y="272" type="line"/>
      <point x="157" y="116"/>
      <point x="268" y="-20"/>
    </contour>
  </outline>
</glyph>
<glyph name="t" format="2">
  <advance width="714.075"/>
  <unicode hex="0074"/>
  <outline>
    <contour>
      <point x="478" y="-20" type="curve" smooth="yes"/>
      <point x="543" y="-20"/>
      <point x="607" y="-2"/>
      <point x="669" y="28" type="curve"/>
      <point x="660" y="85" type="line"/>
      <point x="591" y="59"/>
      <point x="539" y="45"/>
      <point x="477" y="45" type="curve" smooth="yes"/>
      <point x="371" y="45"/>
      <point x="315" y="101"/>
      <point x="315" y="221" type="curve" smooth="yes"/>
      <point x="315" y="1216" type="line"/>
      <point x="245" y="1216" type="line"/>
      <point x="245" y="221" type="line" smooth="yes"/>
      <point x="245" y="66"/>
      <point x="338" y="-20"/>
    </contour>
    <contour>
      <point x="72" y="883" type="line"/>
      <point x="655" y="883" type="line"/>
      <point x="655" y="942" type="line"/>
      <point x="72" y="942" type="line"/>
    </contour>
  </outline>
</glyph>
<glyph name="u" format="2">
  <advance width="1166.925"/>
  <unicode hex="0075"/>
  <anchor x="577" y="971" name="above"/>
  <outline>
    <contour>
      <point x="873" y="942" type="line"/>
      <point x="873" y="0" type="line"/>
      <point x="947" y="0" type="line"/>
      <point x="947" y="942" type="line"/>
    </contour>
    <contour>
      <point x="182" y="942" type="line"/>
      <point x="182" y="346" type="line" smooth="yes"/>
      <point x="182" y="114"/>
      <point x="308" y="-18"/>
      <point x="532" y="-18" type="curve" smooth="yes"/>
      <point x="776" y="-18"/>
      <point x="924" y="186"/>
      <point x="924" y="474" type="curve"/>
      <point x="873" y="474" type="line"/>
      <point x="873" y="249"/>
      <point x="754" y="46"/>
      <point x="533" y="46" type="curve" smooth="yes"/>
      <point x="351" y="46"/>
      <point x="256" y="151"/>
      <point x="256" y="346" type="curve" smooth="yes"/>
      <point x="256" y="942" type="line"/>
    </contour>
  </outline>
</glyph>
<glyph name="v" format="2">
  <advance width="971.175"/>
  <unicode hex="0076"/>
  <outline>
    <contour>
      <point x="48" y="942" type="line"/>
      <point x="451" y="0" type="line"/>
      <point x="522" y="0" type="line"/>
      <point x="925" y="942" type="line"/>
      <point x="843" y="942" type="line"/>
      <point x="474" y="64" type="line"/>
      <point x="500" y="64" type="line"/>
      <point x="130" y="942" type="line"/>
    </contour>
  </outline>
</glyph>
<glyph name="w" format="2">
  <advance width="1380.325"/>
  <unicode hex="0077"/>
  <outline>
    <contour>
      <point x="48" y="942" type="line"/>
      <point x="358" y="0" type="line"/>
      <point x="426" y="0" type="line"/>
      <point x="693" y="770" type="line"/>
      <point x="681" y="770" type="line"/>
      <point x="948" y="0" type="line"/>
      <point x="1018" y="0" type="line"/>
      <point x="1326" y="942" type="line"/>
      <point x="1252" y="942" type="line"/>
      <point x="973" y="78" type="line"/>
      <point x="985" y="78" type="line"/>
      <point x="710" y="902" type="line"/>
      <point x="666" y="902" type="line"/>
      <point x="387" y="80" type="line"/>
      <point x="403" y="80" type="line"/>
      <point x="124" y="942" type="line"/>
    </contour>
  </outline>
</glyph>
<glyph name="x" format="2">
  <advance width="936.9"/>
  <unicode hex="0078"/>
  <outline>
    <contour>
      <point x="73" y="0" type="line"/>
      <point x="160" y="0" type="line"/>
      <point x="463" y="417" type="line"/>
      <point x="770" y="0" type="line"/>
      <point x="859" y="0" type="line"/>
      <point x="512" y="472" type="line"/>
      <point x="863" y="942" type="line"/>
      <point x="774" y="942" type="line"/>
      <point x="471" y="528" type="line"/>
      <point x="160" y="942" type="line"/>
      <point x="73" y="942" type="line"/>
      <point x="418" y="472" type="line"/>
    </contour>
  </outline>
</glyph>
<glyph name="y" format="2">
  <advance width="853.1"/>
  <unicode hex="0079"/>
  <outline>
    <contour>
      <point x="50" y="942" type="line"/>
      <point x="444" y="0" type="line"/>
      <point x="418" y="-98" type="line" smooth="yes"/>
      <point x="378" y="-238"/>
      <point x="324" y="-418"/>
      <point x="178" y="-418" type="curve" smooth="yes"/>
      <point x="104" y="-418"/>
      <point x="44" y="-393"/>
      <point x="-24" y="-327" type="curve"/>
      <point x="-24" y="-406" type="line"/>
      <point x="45" y="-454"/>
      <point x="103" y="-482"/>
      <point x="179" y="-482" type="curve" smooth="yes"/>
      <point x="331" y="-482"/>
      <point x="415" y="-361"/>
      <point x="458" y="-208" type="curve" smooth="yes"/>
      <point x="806" y="942" type="line"/>
      <point x="728" y="942" type="line"/>
      <point x="465" y="64" type="line"/>
      <point x="495" y="64" type="line"/>
      <point x="128" y="942" type="line"/>
    </contour>
  </outline>
</glyph>
<glyph name="z" format="2">
  <advance width="906.975"/>
  <unicode hex="007A"/>
  <outline>
    <contour>
      <point x="98" y="0" type="line"/>
      <point x="813" y="0" type="line"/>
      <point x="813" y="58" type="line"/>
      <point x="188" y="58" type="line"/>
      <point x="813" y="881" type="line"/>
      <point x="813" y="942" type="line"/>
      <point x="98" y="942" type="line"/>
      <point x="98" y="881" type="line"/>
      <point x="723" y="881" type="line"/>
      <point x="98" y="58" type="line"/>
    </contour>
  </outline>
</glyph>
<glyph name="braceleft" format="2">
  <advance width="607.85"/>
  <unicode hex="007B"/>
  <outline>
    <contour>
      <point x="584" y="-239" type="curve"/>
      <point x="584" y="-179" type="line"/>
      <point x="388" y="-179"/>
      <point x="326" y="-38"/>
      <point x="326" y="194" type="curve" smooth="yes"/>
      <point x="326" y="374" type="line" smooth="yes"/>
      <point x="326" y="494"/>
      <point x="298" y="551"/>
      <point x="251" y="577" type="curve"/>
      <point x="251" y="579" type="line"/>
      <point x="298" y="605"/>
      <point x="326" y="663"/>
      <point x="326" y="783" type="curve" smooth="yes"/>
      <point x="326" y="963" type="line" smooth="yes"/>
      <point x="326" y="1195"/>
      <point x="388" y="1336"/>
      <point x="584" y="1336" type="curve"/>
      <point x="584" y="1398" type="line"/>
      <point x="329" y="1398"/>
      <point x="254" y="1212"/>
      <point x="254" y="962" type="curve" smooth="yes"/>
      <point x="254" y="778" type="line" smooth="yes"/>
      <point x="254" y="658"/>
      <point x="228" y="608"/>
      <point x="176" y="608" type="curve" smooth="yes"/>
      <point x="158" y="608" type="line"/>
      <point x="158" y="544" type="line"/>
      <point x="176" y="544" type="line" smooth="yes"/>
      <point x="228" y="544"/>
      <point x="254" y="496"/>
      <point x="254" y="374" type="curve" smooth="yes"/>
      <point x="254" y="192" type="line" smooth="yes"/>
      <point x="254" y="-53"/>
      <point x="329" y="-239"/>
    </contour>
  </outline>
</glyph>
<glyph name="bar" format="2">
  <advance width="509.775"/>
  <unicode hex="007C"/>
  <outline>
    <contour>
      <point x="218" y="-244" type="line"/>
      <point x="292" y="-244" type="line"/>
      <point x="292" y="1459" type="line"/>
      <point x="218" y="1459" type="line"/>
    </contour>
  </outline>
</glyph>
<glyph name="asciitilde" format="2">
  <advance width="916.25"/>
  <unicode hex="007E"/>
  <anchor x="511" y="379" name="_above"/>
  <outline>
    <contour>
      <point x="143" y="485" type="line"/>
      <point x="181" y="573"/>
      <point x="223" y="599"/>
      <point x="263" y="599" type="curve" smooth="yes"/>
      <point x="299" y="599"/>
      <point x="331" y="587"/>
      <point x="449" y="541" type="curve" smooth="yes"/>
      <point x="551" y="501"/>
      <point x="605" y="485"/>
      <point x="641" y="485" type="curve" smooth="yes"/>
      <point x="712" y="485"/>
      <point x="776" y="528"/>
      <point x="817" y="650" type="curve"/>
      <point x="776" y="677" type="line"/>
      <point x="740" y="597"/>
      <point x="690" y="559"/>
      <point x="642" y="559" type="curve" smooth="yes"/>
      <point x="607" y="559"/>
      <point x="577" y="565"/>
      <point x="452" y="615" type="curve" smooth="yes"/>
      <point x="346" y="657"/>
      <point x="306" y="671"/>
      <point x="269" y="671" type="curve" smooth="yes"/>
      <point x="206" y="671"/>
      <point x="140" y="624"/>
      <point x="98" y="508" type="curve"/>
    </contour>
  </outline>
</glyph>
<glyph name="cent" format="2">
  <advance width="992.2"/>
  <unicode hex="00A2"/>
  <outline>
    <contour>
      <point x="488" y="-204" type="line"/>
      <point x="561" y="-204" type="line"/>
      <point x="561" y="-7" type="line"/>
      <point x="488" y="-7" type="line"/>
    </contour>
    <contour>
      <point x="488" y="944" type="line"/>
      <point x="561" y="944" type="line"/>
      <point x="561" y="1109" type="line"/>
      <point x="488" y="1109" type="line"/>
    </contour>
    <component base="c"/>
  </outline>
</glyph>
<glyph name="sterling" format="2">
  <advance width="1053.15"/>
  <unicode hex="00A3"/>
  <outline>
    <contour>
      <point x="84" y="35" type="line"/>
      <point x="271" y="35"/>
      <point x="316" y="92"/>
      <point x="316" y="244" type="curve" smooth="yes"/>
      <point x="316" y="839" type="line" smooth="yes"/>
      <point x="316" y="1064"/>
      <point x="408" y="1163"/>
      <point x="569" y="1163" type="curve" smooth="yes"/>
      <point x="675" y="1163"/>
      <point x="774" y="1111"/>
      <point x="798" y="982" type="curve"/>
      <point x="872" y="982" type="line"/>
      <point x="840" y="1145"/>
      <point x="720" y="1231"/>
      <point x="569" y="1231" type="curve" smooth="yes"/>
      <point x="327" y="1231"/>
      <point x="242" y="1071"/>
      <point x="242" y="839" type="curve" smooth="yes"/>
      <point x="242" y="244" type="line" smooth="yes"/>
      <point x="242" y="118"/>
      <point x="190" y="58"/>
      <point x="84" y="58" type="curve"/>
    </contour>
    <contour>
      <point x="36" y="0" type="line"/>
      <point x="700" y="0" type="line" smooth="yes"/>
      <point x="895" y="0"/>
      <point x="962" y="100"/>
      <point x="980" y="242" type="curve"/>
      <point x="906" y="242" type="line"/>
      <point x="884" y="116"/>
      <point x="826" y="58"/>
      <point x="702" y="58" type="curve" smooth="yes"/>
      <point x="36" y="58" type="line"/>
    </contour>
    <contour>
      <point x="44" y="505" type="line"/>
      <point x="699" y="505" type="line"/>
      <point x="699" y="566" type="line"/>
      <point x="44" y="566" type="line"/>
    </contour>
  </outline>
</glyph>
<glyph name="currency" format="2">
  <advance width="1200"/>
  <unicode hex="00A4"/>
  <outline>
    <contour>
      <point x="600" y="236" type="curve" smooth="yes"/>
      <point x="814" y="236"/>
      <point x="986" y="410"/>
      <point x="986" y="628" type="curve" smooth="yes"/>
      <point x="986" y="838"/>
      <point x="814" y="1011"/>
      <point x="600" y="1011" type="curve" smooth="yes"/>
      <point x="386" y="1011"/>
      <point x="212" y="838"/>
      <point x="212" y="628" type="curve" smooth="yes"/>
      <point x="212" y="410"/>
      <point x="386" y="236"/>
    </contour>
    <contour>
      <point x="600" y="317" type="curve" smooth="yes"/>
      <point x="429" y="317"/>
      <point x="293" y="453"/>
      <point x="293" y="628" type="curve" smooth="yes"/>
      <point x="293" y="796"/>
      <point x="429" y="931"/>
      <point x="600" y="931" type="curve" smooth="yes"/>
      <point x="767" y="931"/>
      <point x="907" y="796"/>
      <point x="907" y="628" type="curve" smooth="yes"/>
      <point x="907" y="453"/>
      <point x="767" y="317"/>
    </contour>
    <contour>
      <point x="872" y="841" type="line"/>
      <point x="1033" y="1000" type="line"/>
      <point x="974" y="1057" type="line"/>
      <point x="813" y="900" type="line"/>
    </contour>
    <contour>
      <point x="328" y="841" type="line"/>
      <point x="385" y="900" type="line"/>
      <point x="224" y="1057" type="line"/>
      <point x="167" y="998" type="line"/>
    </contour>
    <contour>
      <point x="872" y="411" type="line"/>
      <point x="815" y="352" type="line"/>
      <point x="976" y="190" type="line"/>
      <point x="1033" y="254" type="line"/>
    </contour>
    <contour>
      <point x="328" y="411" type="line"/>
      <point x="167" y="254" type="line"/>
      <point x="224" y="190" type="line"/>
      <point x="385" y="352" type="line"/>
    </contour>
  </outline>
</glyph>
<glyph name="yen" format="2">
  <advance width="1019.1"/>
  <unicode hex="00A5"/>
  <outline>
    <contour>
      <point x="472" y="0" type="line"/>
      <point x="550" y="0" type="line"/>
      <point x="550" y="495" type="line"/>
      <point x="996" y="1213" type="line"/>
      <point x="904" y="1213" type="line"/>
      <point x="493" y="550" type="line"/>
      <point x="527" y="550" type="line"/>
      <point x="116" y="1213" type="line"/>
      <point x="22" y="1213" type="line"/>
      <point x="472" y="495" type="line"/>
    </contour>
    <contour>
      <point x="183" y="235" type="line"/>
      <point x="837" y="235" type="line"/>
      <point x="837" y="298" type="line"/>
      <point x="183" y="298" type="line"/>
    </contour>
    <contour>
      <point x="183" y="416" type="line"/>
      <point x="837" y="416" type="line"/>
      <point x="837" y="480" type="line"/>
      <point x="183" y="480" type="line"/>
    </contour>
  </outline>
</glyph>
<glyph name="dieresis" format="2">
  <advance width="518.975"/>
  <unicode hex="00A8"/>
  <anchor x="259" y="1354" name="_above"/>
  <outline>
    <contour>
      <point x="398" y="1576" type="curve" smooth="yes"/>
      <point x="435" y="1576"/>
      <point x="467" y="1604"/>
      <point x="467" y="1640" type="curve" smooth="yes"/>
      <point x="467" y="1675"/>
      <point x="435" y="1709"/>
      <point x="398" y="1709" type="curve" smooth="yes"/>
      <point x="360" y="1709"/>
      <point x="331" y="1675"/>
      <point x="331" y="1640" type="curve" smooth="yes"/>
      <point x="331" y="1604"/>
      <point x="360" y="1576"/>
    </contour>
    <contour>
      <point x="115" y="1576" type="curve" smooth="yes"/>
      <point x="153" y="1576"/>
      <point x="184" y="1604"/>
      <point x="184" y="1638" type="curve" smooth="yes"/>
      <point x="184" y="1675"/>
      <point x="153" y="1707"/>
      <point x="115" y="1707" type="curve" smooth="yes"/>
      <point x="78" y="1707"/>
      <point x="48" y="1675"/>
      <point x="48" y="1638" type="curve" smooth="yes"/>
      <point x="48" y="1604"/>
      <point x="78" y="1576"/>
    </contour>
  </outline>
</glyph>
<glyph name="plusminus" format="2">
  <advance width="937.075"/>
  <unicode hex="00B1"/>
  <outline>
    <contour>
      <point x="430" y="1001" type="line"/>
      <point x="430" y="642" type="line"/>
      <point x="91" y="642" type="line"/>
      <point x="91" y="583" type="line"/>
      <point x="430" y="583" type="line"/>
      <point x="430" y="223" type="line"/>
      <point x="505" y="223" type="line"/>
      <point x="505" y="583" type="line"/>
      <point x="844" y="583" type="line"/>
      <point x="844" y="642" type="line"/>
      <point x="505" y="642" type="line"/>
      <point x="505" y="1001" type="line"/>
    </contour>
    <contour>
      <point x="140" y="61" type="line"/>
      <point x="140" y="0" type="line"/>
      <point x="797" y="0" type="line"/>
      <point x="797" y="61" type="line"/>
    </contour>
  </outline>
</glyph>
<glyph name="acute" format="2">
  <advance width="538.85"/>
  <unicode hex="00B4"/>
  <anchor x="271" y="1215" name="_above"/>
  <outline>
    <contour>
      <point x="78" y="1319" type="line"/>
      <point x="490" y="1564" type="line"/>
      <point x="446" y="1634" type="line"/>
      <point x="46" y="1366" type="line"/>
    </contour>
  </outline>
</glyph>
<glyph name="multiply" format="2">
  <advance width="1021.175"/>
  <unicode hex="00D7"/>
  <outline>
    <contour>
      <point x="199" y="131" type="line"/>
      <point x="512" y="439" type="line"/>
      <point x="820" y="131" type="line"/>
      <point x="871" y="181" type="line"/>
      <point x="560" y="494" type="line"/>
      <point x="871" y="800" type="line"/>
      <point x="820" y="851" type="line"/>
      <point x="512" y="542" type="line"/>
      <point x="199" y="851" type="line"/>
      <point x="150" y="800" type="line"/>
      <point x="459" y="494" type="line"/>
      <point x="150" y="181" type="line"/>
    </contour>
  </outline>
</glyph>
<glyph name="divide" format="2">
  <advance width="1020.75"/>
  <unicode hex="00F7"/>
  <outline>
    <contour>
      <point x="201" y="460" type="line"/>
      <point x="819" y="460" type="line"/>
      <point x="819" y="522" type="line"/>
      <point x="201" y="522" type="line"/>
    </contour>
    <contour>
      <point x="510" y="204" type="curve" smooth="yes"/>
      <point x="549" y="204"/>
      <point x="577" y="235"/>
      <point x="577" y="269" type="curve" smooth="yes"/>
      <point x="577" y="302"/>
      <point x="549" y="338"/>
      <point x="510" y="338" type="curve" smooth="yes"/>
      <point x="472" y="338"/>
      <point x="443" y="302"/>
      <point x="443" y="269" type="curve" smooth="yes"/>
      <point x="443" y="235"/>
      <point x="472" y="204"/>
    </contour>
    <contour>
      <point x="510" y="647" type="curve" smooth="yes"/>
      <point x="549" y="647"/>
      <point x="577" y="676"/>
      <point x="577" y="712" type="curve" smooth="yes"/>
      <point x="577" y="747"/>
      <point x="549" y="777"/>
      <point x="510" y="777" type="curve" smooth="yes"/>
      <point x="472" y="777"/>
      <point x="443" y="747"/>
      <point x="443" y="712" type="curve" smooth="yes"/>
      <point x="443" y="676"/>
      <point x="472" y="647"/>
    </contour>
  </outline>
</glyph>
<glyph name="circumflex" format="2">
  <advance width="689.025"/>
  <unicode hex="02C6"/>
  <anchor x="345" y="1215" name="_above"/>
  <outline>
    <contour>
      <point x="93" y="1317" type="line"/>
      <point x="345" y="1552" type="line"/>
      <point x="594" y="1317" type="line"/>
      <point x="643" y="1354" type="line"/>
      <point x="345" y="1660" type="line"/>
      <point x="48" y="1354" type="line"/>
    </contour>
  </outline>
</glyph>
<glyph name="tilde" format="2">
  <advance width="669.525"/>
  <unicode hex="02DC"/>
  <anchor x="327" y="1215" name="_above"/>
  <outline>
    <contour>
      <point x="79" y="1409" type="line"/>
      <point x="109" y="1487"/>
      <point x="147" y="1517"/>
      <point x="187" y="1517" type="curve" smooth="yes"/>
      <point x="215" y="1517"/>
      <point x="229" y="1511"/>
      <point x="313" y="1469" type="curve" smooth="yes"/>
      <point x="410" y="1419"/>
      <point x="441" y="1409"/>
      <point x="473" y="1409" type="curve" smooth="yes"/>
      <point x="531" y="1409"/>
      <point x="580" y="1455"/>
      <point x="612" y="1562" type="curve"/>
      <point x="577" y="1588" type="line"/>
      <point x="549" y="1512"/>
      <point x="509" y="1478"/>
      <point x="471" y="1478" type="curve" smooth="yes"/>
      <point x="443" y="1478"/>
      <point x="429" y="1483"/>
      <point x="333" y="1534" type="curve" smooth="yes"/>
      <point x="237" y="1584"/>
      <point x="217" y="1588"/>
      <point x="187" y="1588" type="curve" smooth="yes"/>
      <point x="128" y="1588"/>
      <point x="78" y="1538"/>
      <point x="46" y="1433" type="curve"/>
    </contour>
  </outline>
</glyph>
<glyph name="endash" format="2">
  <advance width="837.375"/>
  <unicode hex="2013"/>
  <outline>
    <contour>
      <point x="110" y="528" type="line"/>
      <point x="729" y="528" type="line"/>
      <point x="729" y="593" type="line"/>
      <point x="110" y="593" type="line"/>
    </contour>
  </outline>
</glyph>
<glyph name="emdash" format="2">
  <advance width="1359.825"/>
  <unicode hex="2014"/>
  <outline>
    <contour>
      <point x="110" y="528" type="line"/>
      <point x="1254" y="528" type="line"/>
      <point x="1254" y="593" type="line"/>
      <point x="110" y="593" type="line"/>
    </contour>
  </outline>
</glyph>
<glyph name="quoteleft" format="2">
  <advance width="305.075"/>
  <unicode hex="2018"/>
  <outline>
    <contour>
      <point x="157" y="920" type="curve" smooth="yes"/>
      <point x="194" y="920"/>
      <point x="217" y="952"/>
      <point x="217" y="985" type="curve" smooth="yes"/>
      <point x="217" y="1023"/>
      <point x="190" y="1042"/>
      <point x="142" y="1042" type="curve"/>
      <point x="152" y="1098"/>
      <point x="192" y="1138"/>
      <point x="255" y="1171" type="curve"/>
      <point x="197" y="1199" type="line"/>
      <point x="107" y="1151"/>
      <point x="72" y="1080"/>
      <point x="72" y="1019" type="curve" smooth="yes"/>
      <point x="72" y="959"/>
      <point x="110" y="920"/>
    </contour>
  </outline>
</glyph>
<glyph name="quoteright" format="2">
  <advance width="305.075"/>
  <unicode hex="2019"/>
  <outline>
    <contour>
      <point x="60" y="920" type="line"/>
      <point x="147" y="970"/>
      <point x="183" y="1041"/>
      <point x="183" y="1100" type="curve" smooth="yes"/>
      <point x="183" y="1159"/>
      <point x="147" y="1199"/>
      <point x="102" y="1199" type="curve" smooth="yes"/>
      <point x="59" y="1199"/>
      <point x="35" y="1169"/>
      <point x="35" y="1136" type="curve" smooth="yes"/>
      <point x="35" y="1096"/>
      <point x="69" y="1072"/>
      <point x="110" y="1073" type="curve"/>
      <point x="103" y="1019"/>
      <point x="65" y="981"/>
      <point x="1" y="947" type="curve"/>
    </contour>
  </outline>
</glyph>
<glyph name="euro" format="2">
  <advance width="1183.975"/>
  <unicode hex="20AC"/>
  <outline>
    <contour>
      <point x="649" y="-20" type="curve" smooth="yes"/>
      <point x="905" y="-20"/>
      <point x="1109" y="138"/>
      <point x="1109" y="387" type="curve"/>
      <point x="1023" y="387" type="line"/>
      <point x="1023" y="179"/>
      <point x="868" y="46"/>
      <point x="649" y="46" type="curve" smooth="yes"/>
      <point x="362" y="46"/>
      <point x="230" y="307"/>
      <point x="230" y="620" type="curve" smooth="yes"/>
      <point x="230" y="974"/>
      <point x="437" y="1167"/>
      <point x="649" y="1167" type="curve" smooth="yes"/>
      <point x="812" y="1167"/>
      <point x="961" y="1059"/>
      <point x="1023" y="882" type="curve"/>
      <point x="1105" y="904" type="line"/>
      <point x="1028" y="1097"/>
      <point x="873" y="1231"/>
      <point x="649" y="1231" type="curve" smooth="yes"/>
      <point x="378" y="1231"/>
      <point x="150" y="1015"/>
      <point x="150" y="620" type="curve" smooth="yes"/>
      <point x="150" y="262"/>
      <point x="336" y="-20"/>
    </contour>
    <contour>
      <point x="64" y="494" type="line"/>
      <point x="722" y="494" type="line"/>
      <point x="722" y="555" type="line"/>
      <point x="64" y="555" type="line"/>
    </contour>
    <contour>
      <point x="64" y="678" type="line"/>
      <point x="722" y="678" type="line"/>
      <point x="722" y="739" type="line"/>
      <point x="64" y="739" type="line"/>
    </contour>
  </outline>
</glyph>
<glyph name="Rupee" format="2">
  <advance width="1112.825"/>
  <unicode hex="20B9"/>
  <outline>
    <contour>
      <point x="202" y="1154" type="line"/>
      <point x="934" y="1154" type="line"/>
      <point x="934" y="1213" type="line"/>
      <point x="202" y="1213" type="line"/>
    </contour>
    <contour>
      <point x="202" y="868" type="line"/>
      <point x="934" y="868" type="line"/>
      <point x="934" y="929" type="line"/>
      <point x="202" y="929" type="line"/>
    </contour>
    <contour>
      <point x="202" y="557" type="line"/>
      <point x="202" y="496" type="line"/>
      <point x="775" y="0" type="line"/>
      <point x="882" y="0" type="line"/>
      <point x="234" y="557" type="line"/>
    </contour>
    <contour>
      <point x="232" y="557" type="line"/>
      <point x="232" y="496" type="line"/>
      <point x="308" y="496" type="line" smooth="yes"/>
      <point x="633" y="496"/>
      <point x="760" y="666"/>
      <point x="760" y="860" type="curve" smooth="yes"/>
      <point x="760" y="1051"/>
      <point x="623" y="1199"/>
      <point x="308" y="1199" type="curve" smooth="yes"/>
      <point x="232" y="1199" type="line"/>
      <point x="232" y="1154" type="line"/>
      <point x="308" y="1154" type="line" smooth="yes"/>
      <point x="560" y="1154"/>
      <point x="681" y="1030"/>
      <point x="681" y="860" type="curve" smooth="yes"/>
      <point x="681" y="689"/>
      <point x="560" y="557"/>
      <point x="308" y="557" type="curve" smooth="yes"/>
    </contour>
  </outline>
</glyph>
<glyph name="minus" format="2">
  <advance width="1020.175"/>
  <unicode hex="2212"/>
  <outline>
    <contour>
      <point x="36" y="527" type="line"/>
      <point x="36" y="467" type="line"/>
      <point x="983" y="467" type="line"/>
      <point x="983" y="527" type="line"/>
    </contour>
  </outline>
</glyph>
<glyph name="notequal" format="2">
  <advance width="937.075"/>
  <unicode hex="2260"/>
  <outline>
    <contour>
      <point x="158" y="339" type="line"/>
      <point x="158" y="277" type="line"/>
      <point x="777" y="277" type="line"/>
      <point x="777" y="339" type="line"/>
    </contour>
    <contour>
      <point x="158" y="686" type="line"/>
      <point x="158" y="620" type="line"/>
      <point x="777" y="620" type="line"/>
      <point x="777" y="686" type="line"/>
    </contour>
    <contour>
      <point x="282" y="133" type="line"/>
      <point x="347" y="133" type="line"/>
      <point x="639" y="840" type="line"/>
      <point x="572" y="840" type="line"/>
    </contour>
  </outline>
</glyph>
<glyph name="lessequal" format="2">
  <advance width="937.075"/>
  <unicode hex="2264"/>
  <outline>
    <contour>
      <point x="747" y="237" type="line"/>
      <point x="781" y="298" type="line"/>
      <point x="229" y="528" type="line"/>
      <point x="229" y="501" type="line"/>
      <point x="781" y="742" type="line"/>
      <point x="747" y="794" type="line"/>
      <point x="178" y="546" type="line"/>
      <point x="178" y="487" type="line"/>
    </contour>
    <contour>
      <point x="154" y="0" type="line"/>
      <point x="773" y="0" type="line"/>
      <point x="773" y="61" type="line"/>
      <point x="154" y="61" type="line"/>
    </contour>
  </outline>
</glyph>
<glyph name="greaterequal" format="2">
  <advance width="937.075"/>
  <unicode hex="2265"/>
  <outline>
    <contour>
      <point x="190" y="237" type="line"/>
      <point x="757" y="487" type="line"/>
      <point x="757" y="546" type="line"/>
      <point x="190" y="794" type="line"/>
      <point x="154" y="742" type="line"/>
      <point x="706" y="501" type="line"/>
      <point x="706" y="528" type="line"/>
      <point x="154" y="298" type="line"/>
    </contour>
    <contour>
      <point x="162" y="0" type="line"/>
      <point x="781" y="0" type="line"/>
      <point x="781" y="61" type="line"/>
      <point x="162" y="61" type="line"/>
    </contour>
  </outline>
</glyph>
<glyph name="asciicircum.tf" format="2">
  <advance width="1200"/>
  <outline>
    <contour>
      <point x="270" y="545" type="line"/>
      <point x="358" y="545" type="line"/>
      <point x="614" y="1067" type="line"/>
      <point x="588" y="1067" type="line"/>
      <point x="842" y="545" type="line"/>
      <point x="930" y="545" type="line"/>
      <point x="627" y="1137" type="line"/>
      <point x="575" y="1137" type="line"/>
    </contour>
  </outline>
</glyph>
<glyph name="asciitilde.tf" format="2">
  <advance width="1200"/>
  <outline>
    <contour>
      <point x="284" y="485" type="line"/>
      <point x="320" y="573"/>
      <point x="362" y="599"/>
      <point x="404" y="599" type="curve" smooth="yes"/>
      <point x="440" y="599"/>
      <point x="474" y="587"/>
      <point x="590" y="541" type="curve" smooth="yes"/>
      <point x="692" y="501"/>
      <point x="746" y="485"/>
      <point x="782" y="485" type="curve" smooth="yes"/>
      <point x="855" y="485"/>
      <point x="919" y="528"/>
      <point x="961" y="650" type="curve"/>
      <point x="918" y="677" type="line"/>
      <point x="886" y="597"/>
      <point x="836" y="559"/>
      <point x="786" y="559" type="curve" smooth="yes"/>
      <point x="750" y="559"/>
      <point x="718" y="565"/>
      <point x="598" y="615" type="curve" smooth="yes"/>
      <point x="488" y="657"/>
      <point x="448" y="671"/>
      <point x="410" y="671" type="curve" smooth="yes"/>
      <point x="347" y="671"/>
      <point x="281" y="624"/>
      <point x="239" y="508" type="curve"/>
    </contour>
  </outline>
</glyph>
<glyph name="asterisk.tf" format="2">
  <advance width="1200"/>
  <outline>
    <contour>
      <point x="434" y="760" type="line"/>
      <point x="602" y="974" type="line"/>
      <point x="770" y="760" type="line"/>
      <point x="832" y="813" type="line"/>
      <point x="643" y="1005" type="line"/>
      <point x="890" y="1091" type="line"/>
      <point x="854" y="1165" type="line"/>
      <point x="628" y="1053" type="line"/>
      <point x="640" y="1327" type="line"/>
      <point x="561" y="1327" type="line"/>
      <point x="572" y="1053" type="line"/>
      <point x="346" y="1165" type="line"/>
      <point x="310" y="1094" type="line"/>
      <point x="557" y="1003" type="line"/>
      <point x="368" y="813" type="line"/>
    </contour>
  </outline>
</glyph>
<glyph name="comma.tf" format="2">
  <advance width="1200"/>
  <outline>
    <contour>
      <point x="562" y="-163" type="line"/>
      <point x="671" y="-109"/>
      <point x="711" y="-22"/>
      <point x="711" y="52" type="curve" smooth="yes"/>
      <point x="711" y="115"/>
      <point x="665" y="164"/>
      <point x="612" y="164" type="curve" smooth="yes"/>
      <point x="563" y="164"/>
      <point x="535" y="129"/>
      <point x="535" y="91" type="curve" smooth="yes"/>
      <point x="535" y="46"/>
      <point x="571" y="14"/>
      <point x="625" y="14" type="curve"/>
      <point x="611" y="-52"/>
      <point x="567" y="-91"/>
      <point x="491" y="-131" type="curve"/>
    </contour>
  </outline>
</glyph>
<glyph name="dollar.tf" format="2">
  <advance width="1200"/>
  <outline>
    <contour>
      <point x="598" y="-20" type="curve" smooth="yes"/>
      <point x="879" y="-20"/>
      <point x="1025" y="150"/>
      <point x="1025" y="314" type="curve" smooth="yes"/>
      <point x="1025" y="488"/>
      <point x="900" y="584"/>
      <point x="737" y="633" type="curve" smooth="yes"/>
      <point x="606" y="671" type="line"/>
      <point x="606" y="596" type="line"/>
      <point x="722" y="563" type="line" smooth="yes"/>
      <point x="861" y="522"/>
      <point x="943" y="440"/>
      <point x="943" y="316" type="curve" smooth="yes"/>
      <point x="943" y="181"/>
      <point x="816" y="50"/>
      <point x="596" y="50" type="curve" smooth="yes"/>
      <point x="410" y="50"/>
      <point x="247" y="145"/>
      <point x="247" y="345" type="curve"/>
      <point x="173" y="345" type="line"/>
      <point x="173" y="118"/>
      <point x="364" y="-20"/>
    </contour>
    <contour>
      <point x="560" y="-162" type="line"/>
      <point x="633" y="-162" type="line"/>
      <point x="633" y="1373" type="line"/>
      <point x="560" y="1373" type="line"/>
    </contour>
    <contour>
      <point x="592" y="600" type="line"/>
      <point x="592" y="675" type="line"/>
      <point x="498" y="703" type="line" smooth="yes"/>
      <point x="355" y="745"/>
      <point x="289" y="807"/>
      <point x="289" y="922" type="curve" smooth="yes"/>
      <point x="289" y="1060"/>
      <point x="403" y="1162"/>
      <point x="602" y="1162" type="curve" smooth="yes"/>
      <point x="774" y="1162"/>
      <point x="880" y="1095"/>
      <point x="902" y="964" type="curve"/>
      <point x="976" y="964" type="line"/>
      <point x="955" y="1119"/>
      <point x="821" y="1231"/>
      <point x="602" y="1231" type="curve" smooth="yes"/>
      <point x="347" y="1231"/>
      <point x="211" y="1103"/>
      <point x="211" y="925" type="curve" smooth="yes"/>
      <point x="211" y="762"/>
      <point x="317" y="692"/>
      <point x="535" y="618" type="curve" smooth="yes"/>
    </contour>
  </outline>
</glyph>
<glyph name="eight.tf" format="2">
  <advance width="1200"/>
  <outline>
    <contour>
      <point x="598" y="-20" type="curve" smooth="yes"/>
      <point x="887" y="-20"/>
      <point x="1059" y="104"/>
      <point x="1059" y="283" type="curve" smooth="yes"/>
      <point x="1059" y="435"/>
      <point x="965" y="519"/>
      <point x="787" y="585" type="curve" smooth="yes"/>
      <point x="474" y="701" type="line" smooth="yes"/>
      <point x="346" y="749"/>
      <point x="261" y="805"/>
      <point x="261" y="920" type="curve" smooth="yes"/>
      <point x="261" y="1050"/>
      <point x="403" y="1163"/>
      <point x="598" y="1163" type="curve" smooth="yes"/>
      <point x="797" y="1163"/>
      <point x="931" y="1050"/>
      <point x="931" y="908" type="curve" smooth="yes"/>
      <point x="931" y="751"/>
      <point x="795" y="643"/>
      <point x="606" y="643" type="curve"/>
      <point x="606" y="611" type="line"/>
      <point x="625" y="605"/>
      <point x="647" y="605"/>
      <point x="669" y="605" type="curve" smooth="yes"/>
      <point x="899" y="605"/>
      <point x="1013" y="745"/>
      <point x="1013" y="907" type="curve" smooth="yes"/>
      <point x="1013" y="1091"/>
      <point x="846" y="1231"/>
      <point x="598" y="1231" type="curve" smooth="yes"/>
      <point x="339" y="1231"/>
      <point x="179" y="1093"/>
      <point x="179" y="921" type="curve" smooth="yes"/>
      <point x="179" y="766"/>
      <point x="319" y="678"/>
      <point x="437" y="632" type="curve" smooth="yes"/>
      <point x="762" y="510" type="line" smooth="yes"/>
      <point x="893" y="460"/>
      <point x="981" y="398"/>
      <point x="981" y="283" type="curve" smooth="yes"/>
      <point x="981" y="143"/>
      <point x="822" y="50"/>
      <point x="598" y="50" type="curve" smooth="yes"/>
      <point x="377" y="50"/>
      <point x="221" y="145"/>
      <point x="221" y="325" type="curve" smooth="yes"/>
      <point x="221" y="470"/>
      <point x="367" y="607"/>
      <point x="594" y="607" type="curve"/>
      <point x="594" y="640" type="line"/>
      <point x="575" y="644"/>
      <point x="553" y="642"/>
      <point x="529" y="642" type="curve" smooth="yes"/>
      <point x="305" y="642"/>
      <point x="139" y="522"/>
      <point x="139" y="326" type="curve" smooth="yes"/>
      <point x="139" y="126"/>
      <point x="345" y="-20"/>
    </contour>
  </outline>
</glyph>
<glyph name="equal.tf" format="2">
  <advance width="1200"/>
  <outline>
    <contour>
      <point x="288" y="339" type="line"/>
      <point x="288" y="277" type="line"/>
      <point x="912" y="277" type="line"/>
      <point x="912" y="339" type="line"/>
    </contour>
    <contour>
      <point x="288" y="686" type="line"/>
      <point x="288" y="620" type="line"/>
      <point x="912" y="620" type="line"/>
      <point x="912" y="686" type="line"/>
    </contour>
  </outline>
</glyph>
<glyph name="exclam.tf" format="2">
  <advance width="1200"/>
  <outline>
    <contour>
      <point x="577" y="264" type="line"/>
      <point x="623" y="264" type="line"/>
      <point x="637" y="1176" type="line"/>
      <point x="563" y="1176" type="line"/>
    </contour>
    <contour>
      <point x="598" y="-18" type="curve" smooth="yes"/>
      <point x="635" y="-18"/>
      <point x="669" y="12"/>
      <point x="669" y="47" type="curve" smooth="yes"/>
      <point x="669" y="82"/>
      <point x="635" y="116"/>
      <point x="598" y="116" type="curve" smooth="yes"/>
      <point x="563" y="116"/>
      <point x="531" y="82"/>
      <point x="531" y="47" type="curve" smooth="yes"/>
      <point x="531" y="12"/>
      <point x="563" y="-18"/>
    </contour>
  </outline>
</glyph>
<glyph name="five.prop" format="2">
  <advance width="1094.975"/>
  <outline>
    <contour>
      <point x="507" y="-218" type="curve" smooth="yes"/>
      <point x="767" y="-218"/>
      <point x="948" y="-42"/>
      <point x="948" y="190" type="curve" smooth="yes"/>
      <point x="948" y="427"/>
      <point x="779" y="567"/>
      <point x="505" y="567" type="curve" smooth="yes"/>
      <point x="439" y="567"/>
      <point x="359" y="559"/>
      <point x="295" y="547" type="curve"/>
      <point x="315" y="531" type="line"/>
      <point x="361" y="986" type="line"/>
      <point x="341" y="946" type="line"/>
      <point x="897" y="946" type="line"/>
      <point x="897" y="1014" type="line"/>
      <point x="285" y="1014" type="line"/>
      <point x="235" y="500" type="line"/>
      <point x="510" y="500" type="line" smooth="yes"/>
      <point x="744" y="500"/>
      <point x="866" y="378"/>
      <point x="866" y="190" type="curve" smooth="yes"/>
      <point x="866" y="3"/>
      <point x="720" y="-148"/>
      <point x="505" y="-148" type="curve" smooth="yes"/>
      <point x="329" y="-148"/>
      <point x="218" y="-57"/>
      <point x="218" y="111" type="curve"/>
      <point x="146" y="111" type="line"/>
      <point x="146" y="-102"/>
      <point x="314" y="-218"/>
    </contour>
  </outline>
</glyph>
<glyph name="five.tf" format="2">
  <advance width="1200"/>
  <outline>
    <contour>
      <point x="580" y="-20" type="curve" smooth="yes"/>
      <point x="839" y="-20"/>
      <point x="993" y="150"/>
      <point x="993" y="379" type="curve" smooth="yes"/>
      <point x="993" y="617"/>
      <point x="821" y="727"/>
      <point x="549" y="727" type="curve" smooth="yes"/>
      <point x="485" y="727"/>
      <point x="401" y="723"/>
      <point x="337" y="709" type="curve"/>
      <point x="357" y="695" type="line"/>
      <point x="403" y="1186" type="line"/>
      <point x="386" y="1147" type="line"/>
      <point x="941" y="1147" type="line"/>
      <point x="941" y="1213" type="line"/>
      <point x="329" y="1213" type="line"/>
      <point x="277" y="664" type="line"/>
      <point x="556" y="664" type="line" smooth="yes"/>
      <point x="786" y="664"/>
      <point x="913" y="566"/>
      <point x="913" y="379" type="curve" smooth="yes"/>
      <point x="913" y="193"/>
      <point x="791" y="50"/>
      <point x="580" y="50" type="curve" smooth="yes"/>
      <point x="403" y="50"/>
      <point x="263" y="141"/>
      <point x="263" y="311" type="curve"/>
      <point x="189" y="311" type="line"/>
      <point x="191" y="94"/>
      <point x="385" y="-20"/>
    </contour>
  </outline>
</glyph>
<glyph name="four.prop" format="2">
  <advance width="1042.15"/>
  <outline>
    <contour>
      <point x="698" y="-204" type="line"/>
      <point x="770" y="-204" type="line"/>
      <point x="770" y="118" type="line"/>
      <point x="982" y="118" type="line"/>
      <point x="982" y="181" type="line"/>
      <point x="770" y="181" type="line"/>
      <point x="770" y="1031" type="line"/>
      <point x="712" y="1031" type="line"/>
      <point x="60" y="179" type="line"/>
      <point x="60" y="118" type="line"/>
      <point x="698" y="118" type="line"/>
    </contour>
    <contour>
      <point x="148" y="179" type="line"/>
      <point x="702" y="891" type="line"/>
      <point x="702" y="179" type="line"/>
    </contour>
  </outline>
</glyph>
<glyph name="four.tf" format="2">
  <advance width="1200"/>
  <outline>
    <contour>
      <point x="773" y="1235" type="line"/>
      <point x="119" y="385" type="line"/>
      <point x="119" y="324" type="line"/>
      <point x="772" y="324" type="line"/>
      <point x="761" y="334" type="line"/>
      <point x="761" y="0" type="line"/>
      <point x="831" y="0" type="line"/>
      <point x="831" y="334" type="line"/>
      <point x="823" y="324" type="line"/>
      <point x="1043" y="324" type="line"/>
      <point x="1043" y="385" type="line"/>
      <point x="821" y="385" type="line"/>
      <point x="831" y="375" type="line"/>
      <point x="831" y="1235" type="line"/>
    </contour>
    <contour>
      <point x="759" y="1183" type="line"/>
      <point x="759" y="374" type="line"/>
      <point x="770" y="385" type="line"/>
      <point x="187" y="385" type="line"/>
      <point x="187" y="357" type="line"/>
      <point x="816" y="1165" type="line"/>
    </contour>
  </outline>
</glyph>
<glyph name="greater.tf" format="2">
  <advance width="1200"/>
  <outline>
    <contour>
      <point x="328" y="105" type="line"/>
      <point x="919" y="546" type="line"/>
      <point x="919" y="604" type="line"/>
      <point x="328" y="1048" type="line"/>
      <point x="281" y="989" type="line"/>
      <point x="864" y="562" type="line"/>
      <point x="864" y="589" type="line"/>
      <point x="281" y="167" type="line"/>
    </contour>
  </outline>
</glyph>
<glyph name="less.tf" format="2">
  <advance width="1200"/>
  <outline>
    <contour>
      <point x="870" y="1048" type="line"/>
      <point x="279" y="604" type="line"/>
      <point x="279" y="546" type="line"/>
      <point x="870" y="105" type="line"/>
      <point x="919" y="167" type="line"/>
      <point x="334" y="589" type="line"/>
      <point x="334" y="562" type="line"/>
      <point x="919" y="989" type="line"/>
    </contour>
  </outline>
</glyph>
<glyph name="minus.tf" format="2">
  <advance width="1200"/>
  <outline>
    <contour>
      <point x="126" y="523" type="line"/>
      <point x="126" y="463" type="line"/>
      <point x="1074" y="463" type="line"/>
      <point x="1074" y="523" type="line"/>
    </contour>
  </outline>
</glyph>
<glyph name="nine.prop" format="2">
  <advance width="1098.525"/>
  <outline>
    <contour>
      <point x="539" y="-218" type="curve" smooth="yes"/>
      <point x="857" y="-218"/>
      <point x="988" y="30"/>
      <point x="988" y="433" type="curve" smooth="yes"/>
      <point x="988" y="804"/>
      <point x="806" y="1032"/>
      <point x="542" y="1032" type="curve" smooth="yes"/>
      <point x="310" y="1032"/>
      <point x="159" y="893"/>
      <point x="159" y="673" type="curve" smooth="yes"/>
      <point x="159" y="455"/>
      <point x="330" y="298"/>
      <point x="540" y="298" type="curve" smooth="yes"/>
      <point x="744" y="298"/>
      <point x="880" y="430"/>
      <point x="894" y="638" type="curve"/>
      <point x="904" y="570"/>
      <point x="906" y="522"/>
      <point x="906" y="456" type="curve" smooth="yes"/>
      <point x="906" y="83"/>
      <point x="796" y="-148"/>
      <point x="539" y="-148" type="curve" smooth="yes"/>
      <point x="347" y="-148"/>
      <point x="236" y="-27"/>
      <point x="238" y="160" type="curve"/>
      <point x="160" y="160" type="line"/>
      <point x="160" y="-56"/>
      <point x="314" y="-218"/>
    </contour>
    <contour>
      <point x="540" y="378" type="curve" smooth="yes"/>
      <point x="363" y="378"/>
      <point x="237" y="491"/>
      <point x="237" y="673" type="curve" smooth="yes"/>
      <point x="237" y="858"/>
      <point x="361" y="964"/>
      <point x="542" y="964" type="curve" smooth="yes"/>
      <point x="714" y="964"/>
      <point x="843" y="858"/>
      <point x="843" y="673" type="curve" smooth="yes"/>
      <point x="843" y="513"/>
      <point x="716" y="378"/>
    </contour>
  </outline>
</glyph>
<glyph name="nine.tf" format="2">
  <advance width="1200"/>
  <outline>
    <contour>
      <point x="568" y="-20" type="curve" smooth="yes"/>
      <point x="883" y="-20"/>
      <point x="1017" y="232"/>
      <point x="1017" y="634" type="curve" smooth="yes"/>
      <point x="1017" y="1001"/>
      <point x="834" y="1231"/>
      <point x="564" y="1231" type="curve" smooth="yes"/>
      <point x="339" y="1231"/>
      <point x="183" y="1091"/>
      <point x="183" y="872" type="curve" smooth="yes"/>
      <point x="183" y="656"/>
      <point x="357" y="498"/>
      <point x="567" y="498" type="curve" smooth="yes"/>
      <point x="771" y="498"/>
      <point x="907" y="624"/>
      <point x="921" y="836" type="curve"/>
      <point x="931" y="766"/>
      <point x="933" y="722"/>
      <point x="933" y="658" type="curve" smooth="yes"/>
      <point x="933" y="283"/>
      <point x="820" y="50"/>
      <point x="568" y="50" type="curve" smooth="yes"/>
      <point x="371" y="50"/>
      <point x="265" y="171"/>
      <point x="263" y="360" type="curve"/>
      <point x="187" y="360" type="line"/>
      <point x="187" y="144"/>
      <point x="336" y="-20"/>
    </contour>
    <contour>
      <point x="564" y="579" type="curve" smooth="yes"/>
      <point x="387" y="579"/>
      <point x="263" y="691"/>
      <point x="263" y="872" type="curve" smooth="yes"/>
      <point x="263" y="1052"/>
      <point x="387" y="1165"/>
      <point x="564" y="1165" type="curve" smooth="yes"/>
      <point x="743" y="1165"/>
      <point x="869" y="1052"/>
      <point x="869" y="872" type="curve" smooth="yes"/>
      <point x="869" y="711"/>
      <point x="743" y="579"/>
    </contour>
  </outline>
</glyph>
<glyph name="numbersign.tf" format="2">
  <advance width="1200"/>
  <outline>
    <contour>
      <point x="299" y="60" type="line"/>
      <point x="367" y="60" type="line"/>
      <point x="397" y="355" type="line"/>
      <point x="741" y="355" type="line"/>
      <point x="711" y="60" type="line"/>
      <point x="779" y="60" type="line"/>
      <point x="813" y="355" type="line"/>
      <point x="1034" y="355" type="line"/>
      <point x="1042" y="409" type="line"/>
      <point x="819" y="409" type="line"/>
      <point x="861" y="808" type="line"/>
      <point x="1082" y="808" type="line"/>
      <point x="1088" y="867" type="line"/>
      <point x="867" y="867" type="line"/>
      <point x="897" y="1156" type="line"/>
      <point x="829" y="1156" type="line"/>
      <point x="797" y="867" type="line"/>
      <point x="451" y="867" type="line"/>
      <point x="481" y="1156" type="line"/>
      <point x="413" y="1156" type="line"/>
      <point x="383" y="867" type="line"/>
      <point x="164" y="867" type="line"/>
      <point x="160" y="808" type="line"/>
      <point x="377" y="808" type="line"/>
      <point x="335" y="409" type="line"/>
      <point x="118" y="409" type="line"/>
      <point x="112" y="355" type="line"/>
      <point x="329" y="355" type="line"/>
    </contour>
    <contour>
      <point x="403" y="409" type="line"/>
      <point x="445" y="808" type="line"/>
      <point x="791" y="808" type="line"/>
      <point x="747" y="409" type="line"/>
    </contour>
  </outline>
</glyph>
<glyph name="one.prop" format="2">
  <advance width="607.7"/>
  <outline>
    <contour>
      <point x="316" y="1016" type="line"/>
      <point x="262" y="961"/>
      <point x="186" y="929"/>
      <point x="108" y="915" type="curve"/>
      <point x="108" y="838" type="line"/>
      <point x="180" y="844"/>
      <point x="256" y="875"/>
      <point x="314" y="929" type="curve"/>
      <point x="314" y="0" type="line"/>
      <point x="388" y="0" type="line"/>
      <point x="388" y="1016" type="line"/>
    </contour>
  </outline>
</glyph>
<glyph name="one.tf" format="2">
  <advance width="1200"/>
  <outline>
    <contour>
      <point x="299" y="0" type="line"/>
      <point x="901" y="0" type="line"/>
      <point x="901" y="69" type="line"/>
      <point x="626" y="69" type="line"/>
      <point x="637" y="59" type="line"/>
      <point x="637" y="1213" type="line"/>
      <point x="562" y="1213" type="line"/>
      <point x="511" y="1159"/>
      <point x="437" y="1129"/>
      <point x="357" y="1115" type="curve"/>
      <point x="357" y="1039" type="line"/>
      <point x="447" y="1045"/>
      <point x="545" y="1091"/>
      <point x="605" y="1176" type="curve"/>
      <point x="563" y="1175" type="line"/>
      <point x="563" y="59" type="line"/>
      <point x="572" y="69" type="line"/>
      <point x="299" y="69" type="line"/>
    </contour>
  </outline>
</glyph>
<glyph name="percent.tf" format="2">
  <advance width="1200"/>
  <outline>
    <contour>
      <point x="155" y="0" type="line"/>
      <point x="235" y="0" type="line"/>
      <point x="1049" y="1213" type="line"/>
      <point x="963" y="1213" type="line"/>
    </contour>
    <contour>
      <point x="922" y="-20" type="curve" smooth="yes"/>
      <point x="1048" y="-20"/>
      <point x="1160" y="78"/>
      <point x="1160" y="252" type="curve" smooth="yes"/>
      <point x="1160" y="425"/>
      <point x="1048" y="521"/>
      <point x="922" y="521" type="curve" smooth="yes"/>
      <point x="798" y="521"/>
      <point x="686" y="425"/>
      <point x="686" y="252" type="curve" smooth="yes"/>
      <point x="686" y="78"/>
      <point x="798" y="-20"/>
    </contour>
    <contour>
      <point x="922" y="43" type="curve" smooth="yes"/>
      <point x="821" y="43"/>
      <point x="755" y="115"/>
      <point x="755" y="252" type="curve" smooth="yes"/>
      <point x="755" y="390"/>
      <point x="821" y="462"/>
      <point x="922" y="462" type="curve" smooth="yes"/>
      <point x="1019" y="462"/>
      <point x="1087" y="390"/>
      <point x="1087" y="252" type="curve" smooth="yes"/>
      <point x="1087" y="115"/>
      <point x="1019" y="43"/>
    </contour>
    <contour>
      <point x="276" y="694" type="curve" smooth="yes"/>
      <point x="402" y="694"/>
      <point x="518" y="788"/>
      <point x="518" y="961" type="curve" smooth="yes"/>
      <point x="518" y="1133"/>
      <point x="402" y="1231"/>
      <point x="276" y="1231" type="curve" smooth="yes"/>
      <point x="156" y="1231"/>
      <point x="40" y="1133"/>
      <point x="40" y="961" type="curve" smooth="yes"/>
      <point x="40" y="788"/>
      <point x="156" y="694"/>
    </contour>
    <contour>
      <point x="276" y="755" type="curve" smooth="yes"/>
      <point x="177" y="755"/>
      <point x="111" y="825"/>
      <point x="111" y="961" type="curve" smooth="yes"/>
      <point x="111" y="1100"/>
      <point x="177" y="1174"/>
      <point x="276" y="1174" type="curve" smooth="yes"/>
      <point x="375" y="1174"/>
      <point x="443" y="1100"/>
      <point x="443" y="961" type="curve" smooth="yes"/>
      <point x="443" y="825"/>
      <point x="375" y="755"/>
    </contour>
  </outline>
</glyph>
<glyph name="period.tf" format="2">
  <advance width="1200"/>
  <outline>
    <contour>
      <point x="598" y="-18" type="curve" smooth="yes"/>
      <point x="645" y="-18"/>
      <point x="681" y="18"/>
      <point x="681" y="59" type="curve" smooth="yes"/>
      <point x="681" y="102"/>
      <point x="645" y="140"/>
      <point x="598" y="140" type="curve" smooth="yes"/>
      <point x="555" y="140"/>
      <point x="519" y="102"/>
      <point x="519" y="59" type="curve" smooth="yes"/>
      <point x="519" y="18"/>
      <point x="555" y="-18"/>
    </contour>
  </outline>
</glyph>
<glyph name="plus.tf" format="2">
  <advance width="1200"/>
  <outline>
    <contour>
      <point x="563" y="982" type="line"/>
      <point x="563" y="521" type="line"/>
      <point x="126" y="521" type="line"/>
      <point x="126" y="461" type="line"/>
      <point x="563" y="461" type="line"/>
      <point x="563" y="0" type="line"/>
      <point x="637" y="0" type="line"/>
      <point x="637" y="461" type="line"/>
      <point x="1076" y="461" type="line"/>
      <point x="1076" y="521" type="line"/>
      <point x="637" y="521" type="line"/>
      <point x="637" y="982" type="line"/>
    </contour>
  </outline>
</glyph>
<glyph name="question.tf" format="2">
  <advance width="1200"/>
  <outline>
    <contour>
      <point x="505" y="250" type="line"/>
      <point x="575" y="250" type="line"/>
      <point x="575" y="353" type="line" smooth="yes"/>
      <point x="575" y="510"/>
      <point x="623" y="556"/>
      <point x="759" y="634" type="curve" smooth="yes"/>
      <point x="917" y="724"/>
      <point x="983" y="802"/>
      <point x="983" y="938" type="curve" smooth="yes"/>
      <point x="983" y="1093"/>
      <point x="845" y="1231"/>
      <point x="616" y="1231" type="curve" smooth="yes"/>
      <point x="373" y="1231"/>
      <point x="239" y="1119"/>
      <point x="219" y="964" type="curve"/>
      <point x="303" y="964" type="line"/>
      <point x="335" y="1095"/>
      <point x="430" y="1163"/>
      <point x="618" y="1163" type="curve" smooth="yes"/>
      <point x="797" y="1163"/>
      <point x="903" y="1068"/>
      <point x="903" y="944" type="curve" smooth="yes"/>
      <point x="903" y="813"/>
      <point x="843" y="765"/>
      <point x="701" y="683" type="curve" smooth="yes"/>
      <point x="545" y="591"/>
      <point x="505" y="525"/>
      <point x="505" y="351" type="curve" smooth="yes"/>
    </contour>
    <contour>
      <point x="540" y="-20" type="curve" smooth="yes"/>
      <point x="575" y="-20"/>
      <point x="606" y="12"/>
      <point x="606" y="47" type="curve" smooth="yes"/>
      <point x="606" y="80"/>
      <point x="575" y="116"/>
      <point x="540" y="116" type="curve" smooth="yes"/>
      <point x="500" y="116"/>
      <point x="473" y="80"/>
      <point x="473" y="47" type="curve" smooth="yes"/>
      <point x="473" y="12"/>
      <point x="500" y="-20"/>
    </contour>
  </outline>
</glyph>
<glyph name="seven.prop" format="2">
  <advance width="881.6"/>
  <outline>
    <contour>
      <point x="48" y="1032" type="line"/>
      <point x="48" y="964" type="line"/>
      <point x="759" y="964" type="line"/>
      <point x="149" y="-184" type="line"/>
      <point x="243" y="-184" type="line"/>
      <point x="847" y="970" type="line"/>
      <point x="847" y="1032" type="line"/>
    </contour>
  </outline>
</glyph>
<glyph name="seven.tf" format="2">
  <advance width="1200"/>
  <outline>
    <contour>
      <point x="185" y="1213" type="line"/>
      <point x="185" y="1147" type="line"/>
      <point x="896" y="1147" type="line"/>
      <point x="285" y="0" type="line"/>
      <point x="381" y="0" type="line"/>
      <point x="983" y="1153" type="line"/>
      <point x="983" y="1213" type="line"/>
    </contour>
  </outline>
</glyph>
<glyph name="six.tf" format="2">
  <advance width="1200"/>
  <outline>
    <contour>
      <point x="602" y="-20" type="curve" smooth="yes"/>
      <point x="831" y="-20"/>
      <point x="983" y="126"/>
      <point x="983" y="344" type="curve" smooth="yes"/>
      <point x="983" y="563"/>
      <point x="809" y="715"/>
      <point x="601" y="715" type="curve" smooth="yes"/>
      <point x="419" y="715"/>
      <point x="249" y="623"/>
      <point x="245" y="336" type="curve"/>
      <point x="237" y="407"/>
      <point x="235" y="497"/>
      <point x="235" y="557" type="curve" smooth="yes"/>
      <point x="235" y="932"/>
      <point x="381" y="1163"/>
      <point x="636" y="1163" type="curve" smooth="yes"/>
      <point x="790" y="1163"/>
      <point x="867" y="1074"/>
      <point x="893" y="938" type="curve"/>
      <point x="977" y="938" type="line"/>
      <point x="946" y="1111"/>
      <point x="825" y="1231"/>
      <point x="636" y="1231" type="curve" smooth="yes"/>
      <point x="324" y="1231"/>
      <point x="155" y="983"/>
      <point x="155" y="585" type="curve" smooth="yes"/>
      <point x="155" y="248"/>
      <point x="326" y="-20"/>
    </contour>
    <contour>
      <point x="602" y="50" type="curve" smooth="yes"/>
      <point x="425" y="50"/>
      <point x="299" y="161"/>
      <point x="299" y="341" type="curve" smooth="yes"/>
      <point x="299" y="506"/>
      <point x="425" y="634"/>
      <point x="604" y="634" type="curve" smooth="yes"/>
      <point x="778" y="634"/>
      <point x="905" y="524"/>
      <point x="905" y="341" type="curve" smooth="yes"/>
      <point x="905" y="161"/>
      <point x="778" y="50"/>
    </contour>
  </outline>
</glyph>
<glyph name="slash.tf" format="2">
  <advance width="1200"/>
  <outline>
    <contour>
      <point x="317" y="-128" type="line"/>
      <point x="393" y="-128" type="line"/>
      <point x="881" y="1433" type="line"/>
      <point x="807" y="1433" type="line"/>
    </contour>
  </outline>
</glyph>
<glyph name="sterling.tf" format="2">
  <advance width="1200"/>
  <outline>
    <contour>
      <point x="173" y="35" type="line"/>
      <point x="360" y="35"/>
      <point x="405" y="92"/>
      <point x="405" y="244" type="curve" smooth="yes"/>
      <point x="405" y="839" type="line" smooth="yes"/>
      <point x="405" y="1064"/>
      <point x="499" y="1163"/>
      <point x="658" y="1163" type="curve" smooth="yes"/>
      <point x="764" y="1163"/>
      <point x="863" y="1111"/>
      <point x="887" y="982" type="curve"/>
      <point x="961" y="982" type="line"/>
      <point x="929" y="1145"/>
      <point x="811" y="1231"/>
      <point x="658" y="1231" type="curve" smooth="yes"/>
      <point x="416" y="1231"/>
      <point x="331" y="1071"/>
      <point x="331" y="839" type="curve" smooth="yes"/>
      <point x="331" y="244" type="line" smooth="yes"/>
      <point x="331" y="118"/>
      <point x="279" y="58"/>
      <point x="173" y="58" type="curve"/>
    </contour>
    <contour>
      <point x="125" y="0" type="line"/>
      <point x="793" y="0" type="line" smooth="yes"/>
      <point x="984" y="0"/>
      <point x="1051" y="100"/>
      <point x="1071" y="242" type="curve"/>
      <point x="999" y="242" type="line"/>
      <point x="975" y="116"/>
      <point x="917" y="58"/>
      <point x="791" y="58" type="curve" smooth="yes"/>
      <point x="125" y="58" type="line"/>
    </contour>
    <contour>
      <point x="135" y="505" type="line"/>
      <point x="787" y="505" type="line"/>
      <point x="787" y="566" type="line"/>
      <point x="135" y="566" type="line"/>
    </contour>
  </outline>
</glyph>
<glyph name="three.prop" format="2">
  <advance width="1065.625"/>
  <outline>
    <contour>
      <point x="485" y="-218" type="curve" smooth="yes"/>
      <point x="745" y="-218"/>
      <point x="920" y="-76"/>
      <point x="920" y="128" type="curve" smooth="yes"/>
      <point x="920" y="294"/>
      <point x="804" y="434"/>
      <point x="642" y="471" type="curve"/>
      <point x="782" y="521"/>
      <point x="868" y="591"/>
      <point x="868" y="723" type="curve" smooth="yes"/>
      <point x="868" y="905"/>
      <point x="709" y="1032"/>
      <point x="487" y="1032" type="curve" smooth="yes"/>
      <point x="312" y="1032"/>
      <point x="157" y="963"/>
      <point x="119" y="760" type="curve"/>
      <point x="192" y="760" type="line"/>
      <point x="237" y="916"/>
      <point x="349" y="964"/>
      <point x="487" y="964" type="curve" smooth="yes"/>
      <point x="678" y="964"/>
      <point x="786" y="864"/>
      <point x="786" y="723" type="curve" smooth="yes"/>
      <point x="786" y="565"/>
      <point x="644" y="491"/>
      <point x="407" y="491" type="curve" smooth="yes"/>
      <point x="362" y="491" type="line"/>
      <point x="362" y="430" type="line"/>
      <point x="467" y="430" type="line" smooth="yes"/>
      <point x="742" y="430"/>
      <point x="840" y="280"/>
      <point x="840" y="127" type="curve" smooth="yes"/>
      <point x="840" y="-29"/>
      <point x="692" y="-147"/>
      <point x="485" y="-147" type="curve" smooth="yes"/>
      <point x="283" y="-147"/>
      <point x="144" y="-47"/>
      <point x="146" y="162" type="curve"/>
      <point x="72" y="162" type="line"/>
      <point x="72" y="-88"/>
      <point x="252" y="-218"/>
    </contour>
  </outline>
</glyph>
<glyph name="three.tf" format="2">
  <advance width="1200"/>
  <outline>
    <contour>
      <point x="604" y="-20" type="curve" smooth="yes"/>
      <point x="865" y="-20"/>
      <point x="1013" y="126"/>
      <point x="1013" y="328" type="curve" smooth="yes"/>
      <point x="1013" y="496"/>
      <point x="894" y="598"/>
      <point x="730" y="635" type="curve"/>
      <point x="874" y="688"/>
      <point x="957" y="777"/>
      <point x="957" y="909" type="curve" smooth="yes"/>
      <point x="957" y="1095"/>
      <point x="797" y="1231"/>
      <point x="582" y="1231" type="curve" smooth="yes"/>
      <point x="403" y="1231"/>
      <point x="245" y="1161"/>
      <point x="209" y="960" type="curve"/>
      <point x="281" y="960" type="line"/>
      <point x="325" y="1119"/>
      <point x="440" y="1163"/>
      <point x="582" y="1163" type="curve" smooth="yes"/>
      <point x="764" y="1163"/>
      <point x="877" y="1050"/>
      <point x="877" y="910" type="curve" smooth="yes"/>
      <point x="877" y="749"/>
      <point x="730" y="655"/>
      <point x="495" y="655" type="curve" smooth="yes"/>
      <point x="448" y="655" type="line"/>
      <point x="448" y="594" type="line"/>
      <point x="561" y="594" type="line" smooth="yes"/>
      <point x="833" y="594"/>
      <point x="933" y="478"/>
      <point x="933" y="329" type="curve" smooth="yes"/>
      <point x="933" y="171"/>
      <point x="811" y="50"/>
      <point x="604" y="50" type="curve" smooth="yes"/>
      <point x="406" y="50"/>
      <point x="235" y="151"/>
      <point x="235" y="359" type="curve"/>
      <point x="163" y="359" type="line"/>
      <point x="163" y="114"/>
      <point x="370" y="-20"/>
    </contour>
  </outline>
</glyph>
<glyph name="two.prop" format="2">
  <advance width="1106.975"/>
  <outline>
    <contour>
      <point x="136" y="0" type="line"/>
      <point x="928" y="0" type="line"/>
      <point x="928" y="70" type="line"/>
      <point x="210" y="70" type="line"/>
      <point x="210" y="155" type="line" smooth="yes"/>
      <point x="210" y="271"/>
      <point x="272" y="372"/>
      <point x="441" y="408" type="curve" smooth="yes"/>
      <point x="675" y="460" type="line" smooth="yes"/>
      <point x="845" y="502"/>
      <point x="941" y="580"/>
      <point x="941" y="735" type="curve" smooth="yes"/>
      <point x="941" y="884"/>
      <point x="789" y="1032"/>
      <point x="565" y="1032" type="curve" smooth="yes"/>
      <point x="316" y="1032"/>
      <point x="180" y="916"/>
      <point x="158" y="751" type="curve"/>
      <point x="242" y="751" type="line"/>
      <point x="258" y="894"/>
      <point x="381" y="964"/>
      <point x="565" y="964" type="curve" smooth="yes"/>
      <point x="752" y="964"/>
      <point x="863" y="864"/>
      <point x="863" y="749" type="curve" smooth="yes"/>
      <point x="863" y="623"/>
      <point x="780" y="557"/>
      <point x="646" y="529" type="curve" smooth="yes"/>
      <point x="424" y="479" type="line" smooth="yes"/>
      <point x="232" y="439"/>
      <point x="136" y="341"/>
      <point x="136" y="139" type="curve" smooth="yes"/>
    </contour>
  </outline>
</glyph>
<glyph name="two.tf" format="2">
  <advance width="1200"/>
  <outline>
    <contour>
      <point x="201" y="0" type="line"/>
      <point x="989" y="0" type="line"/>
      <point x="989" y="70" type="line"/>
      <point x="275" y="70" type="line"/>
      <point x="275" y="153" type="line" smooth="yes"/>
      <point x="275" y="296"/>
      <point x="356" y="376"/>
      <point x="508" y="440" type="curve" smooth="yes"/>
      <point x="750" y="540" type="line" smooth="yes"/>
      <point x="885" y="602"/>
      <point x="1005" y="706"/>
      <point x="1005" y="894" type="curve" smooth="yes"/>
      <point x="1005" y="1085"/>
      <point x="852" y="1231"/>
      <point x="626" y="1231" type="curve" smooth="yes"/>
      <point x="376" y="1231"/>
      <point x="241" y="1117"/>
      <point x="223" y="948" type="curve"/>
      <point x="303" y="948" type="line"/>
      <point x="323" y="1092"/>
      <point x="443" y="1163"/>
      <point x="626" y="1163" type="curve" smooth="yes"/>
      <point x="811" y="1163"/>
      <point x="925" y="1060"/>
      <point x="925" y="904" type="curve" smooth="yes"/>
      <point x="925" y="759"/>
      <point x="847" y="669"/>
      <point x="706" y="611" type="curve" smooth="yes"/>
      <point x="477" y="517" type="line" smooth="yes"/>
      <point x="328" y="455"/>
      <point x="201" y="367"/>
      <point x="201" y="149" type="curve" smooth="yes"/>
    </contour>
  </outline>
</glyph>
<glyph name="yen.tf" format="2">
  <advance width="1200"/>
  <outline>
    <contour>
      <point x="563" y="0" type="line"/>
      <point x="641" y="0" type="line"/>
      <point x="641" y="495" type="line"/>
      <point x="1085" y="1213" type="line"/>
      <point x="995" y="1213" type="line"/>
      <point x="584" y="550" type="line"/>
      <point x="620" y="550" type="line"/>
      <point x="205" y="1213" type="line"/>
      <point x="115" y="1213" type="line"/>
      <point x="563" y="495" type="line"/>
    </contour>
    <contour>
      <point x="274" y="235" type="line"/>
      <point x="932" y="235" type="line"/>
      <point x="932" y="298" type="line"/>
      <point x="274" y="298" type="line"/>
    </contour>
    <contour>
      <point x="274" y="416" type="line"/>
      <point x="932" y="416" type="line"/>
      <point x="932" y="480" type="line"/>
      <point x="274" y="480" type="line"/>
    </contour>
  </outline>
</glyph>
<glyph name="zero.prop" format="2">
  <advance width="981.05"/>
  <outline>
    <contour>
      <point x="489" y="1032" type="curve" smooth="yes"/>
      <point x="264" y="1032"/>
      <point x="110" y="873"/>
      <point x="110" y="509" type="curve" smooth="yes"/>
      <point x="110" y="143"/>
      <point x="264" y="-20"/>
      <point x="489" y="-20" type="curve" smooth="yes"/>
      <point x="714" y="-20"/>
      <point x="874" y="143"/>
      <point x="874" y="509" type="curve" smooth="yes"/>
      <point x="874" y="873"/>
      <point x="714" y="1032"/>
    </contour>
    <contour>
      <point x="489" y="970" type="curve" smooth="yes"/>
      <point x="702" y="970"/>
      <point x="794" y="802"/>
      <point x="794" y="509" type="curve" smooth="yes"/>
      <point x="794" y="217"/>
      <point x="702" y="44"/>
      <point x="489" y="44" type="curve" smooth="yes"/>
      <point x="282" y="44"/>
      <point x="190" y="217"/>
      <point x="190" y="509" type="curve" smooth="yes"/>
      <point x="190" y="802"/>
      <point x="282" y="970"/>
    </contour>
  </outline>
</glyph>
<glyph name="zero.tf" format="2">
  <advance width="1200"/>
  <outline>
    <contour>
      <point x="600" y="-20" type="curve" smooth="yes"/>
      <point x="871" y="-20"/>
      <point x="1045" y="192"/>
      <point x="1045" y="608" type="curve" smooth="yes"/>
      <point x="1045" y="1021"/>
      <point x="871" y="1231"/>
      <point x="600" y="1231" type="curve" smooth="yes"/>
      <point x="327" y="1231"/>
      <point x="155" y="1021"/>
      <point x="155" y="608" type="curve" smooth="yes"/>
      <point x="155" y="192"/>
      <point x="327" y="-20"/>
    </contour>
    <contour>
      <point x="600" y="50" type="curve" smooth="yes"/>
      <point x="357" y="50"/>
      <point x="235" y="257"/>
      <point x="235" y="608" type="curve" smooth="yes"/>
      <point x="235" y="958"/>
      <point x="357" y="1163"/>
      <point x="600" y="1163" type="curve" smooth="yes"/>
      <point x="845" y="1163"/>
      <point x="965" y="958"/>
      <point x="965" y="608" type="curve" smooth="yes"/>
      <point x="965" y="257"/>
      <point x="845" y="50"/>
    </contour>
  </outline>
</glyph>
